<svg width="18" height="18" viewBox="0 0 18 18" fill="none" xmlns="http://www.w3.org/2000/svg">
<g clip-path="url(#clip0_1973_276)">
<path d="M17.6505 14.3129L15.655 12.9825L13.8811 11.8001C13.5387 11.5723 13.0786 11.647 12.8259 11.9714L11.7282 13.3825C11.4924 13.6887 11.0683 13.7767 10.7301 13.5895C9.98533 13.1752 9.10457 12.7851 7.16122 10.8392C5.21788 8.89341 4.82529 8.01515 4.41098 7.27033C4.22378 6.9322 4.31177 6.50805 4.61798 6.27229L6.0291 5.17462C6.35348 4.92192 6.42819 4.46184 6.20041 4.11946L5.05433 2.40016L3.68758 0.350012C3.45495 0.0010554 2.98928 -0.103709 2.62964 0.111972L1.05339 1.05759C0.627405 1.30857 0.314272 1.71385 0.178852 2.1894C-0.252194 3.76097 -0.339099 7.2278 5.21693 12.7838C10.773 18.3399 14.2395 18.2527 15.811 17.8216C16.2866 17.6862 16.6919 17.3731 16.9428 16.9471L17.8885 15.3708C18.1042 15.0112 17.9994 14.5455 17.6505 14.3129Z" fill="white"/>
<path d="M10.2415 2.79304C13.1539 2.79627 15.514 5.15643 15.5173 8.06884C15.5173 8.24023 15.6562 8.3792 15.8276 8.3792C15.999 8.3792 16.138 8.24026 16.138 8.06884C16.1344 4.8138 13.4966 2.17595 10.2415 2.17236C10.0701 2.17236 9.93115 2.3113 9.93115 2.48272C9.93112 2.65407 10.0701 2.79304 10.2415 2.79304Z" fill="white"/>
<path d="M10.2413 4.65489C12.1257 4.65711 13.6528 6.18421 13.655 8.06863C13.655 8.24002 13.7939 8.37899 13.9654 8.37899C14.1367 8.37899 14.2757 8.24005 14.2757 8.06863C14.2731 5.84154 12.4684 4.03675 10.2413 4.03418C10.0699 4.03418 9.93091 4.17312 9.93091 4.34454C9.93091 4.51596 10.0698 4.65489 10.2413 4.65489Z" fill="white"/>
<path d="M10.2415 6.51667C11.098 6.51769 11.7922 7.21181 11.7932 8.06838C11.7932 8.23976 11.9321 8.37874 12.1035 8.37874C12.2749 8.37874 12.4139 8.2398 12.4139 8.06838C12.4125 6.86918 11.4407 5.89737 10.2415 5.896C10.0701 5.896 9.93115 6.03493 9.93115 6.20635C9.93112 6.37774 10.0701 6.51667 10.2415 6.51667Z" fill="white"/>
</g>
<defs>
<clipPath id="clip0_1973_276">
<rect width="18" height="18" fill="white"/>
</clipPath>
</defs>
</svg>
