<svg width="18" height="18" viewBox="0 0 18 18" fill="none" xmlns="http://www.w3.org/2000/svg">
<g clip-path="url(#clip0_1973_284)">
<path d="M11.9321 9.092L18.0004 12.9282V5.09375L11.9321 9.092Z" fill="white"/>
<path d="M0 5.09375V12.9282L6.06825 9.092L0 5.09375Z" fill="white"/>
<path d="M16.8749 2.8125H1.12494C0.563566 2.8125 0.118066 3.231 0.0336914 3.76988L8.99994 9.67725L17.9662 3.76988C17.8818 3.231 17.4363 2.8125 16.8749 2.8125Z" fill="white"/>
<path d="M10.9009 9.77163L9.30902 10.8201C9.21452 10.882 9.10764 10.9124 8.99964 10.9124C8.89164 10.9124 8.78477 10.882 8.69027 10.8201L7.09839 9.77051L0.0356445 14.2379C0.12227 14.7723 0.56552 15.1874 1.12464 15.1874H16.8746C17.4338 15.1874 17.877 14.7723 17.9636 14.2379L10.9009 9.77163Z" fill="white"/>
</g>
<defs>
<clipPath id="clip0_1973_284">
<rect width="18" height="18" fill="white"/>
</clipPath>
</defs>
</svg>
