<svg width="30" height="30" viewBox="0 0 30 30" fill="none" xmlns="http://www.w3.org/2000/svg">
<g clip-path="url(#clip0_1973_239)">
<path d="M15.0037 0H14.9963C6.72563 0 0 6.7275 0 15C0 18.2812 1.0575 21.3225 2.85562 23.7919L0.98625 29.3644L6.75187 27.5213C9.12375 29.0925 11.9531 30 15.0037 30C23.2744 30 30 23.2706 30 15C30 6.72938 23.2744 0 15.0037 0Z" fill="#4CAF50"/>
<path d="M23.7318 21.1821C23.3699 22.204 21.9337 23.0515 20.788 23.299C20.0043 23.4658 18.9805 23.599 15.5343 22.1702C11.1262 20.344 8.28741 15.8646 8.06616 15.574C7.85429 15.2833 6.28491 13.2021 6.28491 11.0496C6.28491 8.89709 7.37804 7.84897 7.81866 7.39897C8.18054 7.02959 8.77866 6.86084 9.35241 6.86084C9.53804 6.86084 9.70491 6.87021 9.85491 6.87771C10.2955 6.89646 10.5168 6.92272 10.8074 7.61834C11.1693 8.49022 12.0505 10.6427 12.1555 10.864C12.2624 11.0852 12.3693 11.3852 12.2193 11.6758C12.0787 11.9758 11.9549 12.109 11.7337 12.364C11.5124 12.619 11.3024 12.814 11.0812 13.0877C10.8787 13.3258 10.6499 13.5808 10.9049 14.0215C11.1599 14.4527 12.0412 15.8908 13.3387 17.0458C15.013 18.5365 16.3705 19.0127 16.8562 19.2152C17.218 19.3652 17.6493 19.3296 17.9137 19.0483C18.2493 18.6865 18.6637 18.0865 19.0855 17.4958C19.3855 17.0721 19.7643 17.0196 20.1618 17.1696C20.5668 17.3102 22.7099 18.3696 23.1505 18.589C23.5912 18.8102 23.8818 18.9152 23.9887 19.1008C24.0937 19.2865 24.0937 20.1583 23.7318 21.1821Z" fill="#FAFAFA"/>
</g>
<defs>
<clipPath id="clip0_1973_239">
<rect width="30" height="30" fill="white"/>
</clipPath>
</defs>
</svg>
