<svg width="34" height="40" viewBox="0 0 34 40" fill="none" xmlns="http://www.w3.org/2000/svg">
<path d="M19.0049 25.1907H17.1056C16.8488 24.2795 15.9996 23.6086 14.9939 23.6086C14.8864 23.6086 14.7808 23.6166 14.6774 23.6313L13.0514 19.7911C12.927 19.4972 12.5839 19.3579 12.2852 19.4807C11.9865 19.6031 11.8452 19.9406 11.9696 20.2345L13.6052 24.0973C13.1139 24.4935 12.7999 25.0949 12.7999 25.7672C12.7999 26.9563 13.7841 27.9236 14.9938 27.9236C15.9994 27.9236 16.8484 27.2536 17.1053 26.3436H19.0049C19.3285 26.3436 19.5909 26.0856 19.5909 25.7672C19.5909 25.4487 19.3285 25.1907 19.0049 25.1907ZM14.9939 26.7706C14.4303 26.7706 13.9718 26.3205 13.9718 25.7672C13.9718 25.2127 14.4303 24.7615 14.9939 24.7615C15.5562 24.7615 16.0137 25.2127 16.0137 25.7672C16.0137 26.3205 15.5562 26.7706 14.9939 26.7706Z" fill="url(#paint0_linear_75_627)"/>
<path d="M2.02771 25.767C2.02771 23.3771 2.62302 21.1778 3.74927 19.4066C5.70474 16.3291 6.38779 14.5661 4.72263 10.5998C4.67794 10.4935 4.63365 10.3975 4.59209 10.3117C7.49662 10.0756 9.65412 11.9818 10.6244 13.701C10.7626 13.9459 11.0597 14.0574 11.3286 13.9657C11.5975 13.874 11.7605 13.6053 11.715 13.3288C11.2719 10.64 12.1421 9.79783 13.2439 8.73163C14.5551 7.46267 16.0383 6.02722 15.2672 1.57666C15.2809 1.58389 15.2949 1.5915 15.3092 1.59972C21.0713 4.90499 21.2232 7.13553 21.399 9.71827C21.5325 11.6776 21.6837 13.8983 24.13 16.7125C24.14 16.724 24.1505 16.7352 24.1615 16.746C25.0436 17.612 25.7936 18.5974 26.3904 19.675C26.5452 19.9544 26.9011 20.0578 27.1852 19.9053C27.4694 19.753 27.5742 19.4029 27.4194 19.1232C26.7726 17.9552 25.9606 16.8865 25.0058 15.9461C22.8265 13.431 22.6951 11.5044 22.5683 9.64118C22.3783 6.85183 22.1989 4.2172 15.8985 0.603169C15.6279 0.448517 14.9425 0.127606 14.4245 0.486104C14.2423 0.612239 13.9546 0.919852 14.0747 1.5626C14.8227 5.58647 13.6565 6.71501 12.422 7.90972C11.557 8.74685 10.6035 9.66969 10.4514 11.5359C9.95154 11.0138 9.38294 10.5558 8.77177 10.1888C7.42123 9.37768 5.90443 9.02679 4.38412 9.17276C3.92998 9.21696 3.50107 9.25862 3.29474 9.63172C3.1031 9.97823 3.26959 10.2962 3.41646 10.5769C3.48396 10.7059 3.56052 10.8521 3.63959 11.0403C5.11669 14.5585 4.60224 15.8894 2.75576 18.7954C1.51279 20.75 0.855835 23.1608 0.855835 25.7671C0.855835 26.0856 1.11818 26.3436 1.44177 26.3436C1.76537 26.3436 2.02771 26.0854 2.02771 25.767Z" fill="url(#paint1_linear_75_627)"/>
<path d="M27.8036 21.3692C27.4937 21.4608 27.318 21.7823 27.4111 22.0872C27.7744 23.2767 27.9587 24.5148 27.9587 25.767C27.9587 29.1741 26.6101 32.3773 24.1615 34.7864C21.7114 37.197 18.4558 38.5246 14.9945 38.5246C11.5319 38.5246 8.27545 37.197 5.82514 34.7861C3.9985 32.991 2.7703 30.7278 2.27326 28.2415C2.21076 27.9291 1.90225 27.7259 1.5853 27.7871C1.2678 27.8486 1.061 28.1516 1.12342 28.4641C1.66553 31.176 3.0049 33.6442 4.9967 35.6017C7.66819 38.2301 11.2188 39.6776 14.9945 39.6776C18.7688 39.6776 22.3187 38.2301 24.9901 35.6016C27.6601 32.9747 29.1306 29.482 29.1306 25.767C29.1306 24.4022 28.9297 23.0525 28.5334 21.7554C28.4402 21.4505 28.1135 21.2777 27.8036 21.3692Z" fill="url(#paint2_linear_75_627)"/>
<path d="M14.9938 15.6299C9.3029 15.6299 4.67297 20.1853 4.67297 25.7847C4.67297 31.3828 9.3029 35.9371 14.9938 35.9371C20.6836 35.9371 25.3125 31.3827 25.3125 25.7847C25.3125 20.1854 20.6836 15.6299 14.9938 15.6299ZM23.0473 26.3435H24.1225C23.9941 28.3943 23.1649 30.2613 21.8677 31.7149L21.1031 30.9626C20.8743 30.7375 20.5034 30.7374 20.2745 30.9625C20.0456 31.1876 20.0456 31.5527 20.2745 31.7777L21.0402 32.5312C19.5642 33.8134 17.666 34.6347 15.5798 34.7651V33.6908C15.5798 33.3724 15.3175 33.1143 14.9939 33.1143C14.6703 33.1143 14.408 33.3724 14.408 33.6908V34.7652C12.321 34.6347 10.4222 33.8132 8.94571 32.5309L9.71118 31.7778C9.94 31.5527 9.94 31.1877 9.71118 30.9626C9.48235 30.7375 9.11133 30.7374 8.88258 30.9627L8.11821 31.7148C6.82086 30.2611 5.99149 28.3942 5.86313 26.3436H6.93836C7.26196 26.3436 7.5243 26.0856 7.5243 25.7671C7.5243 25.4487 7.26196 25.1906 6.93836 25.1906H5.8654C6.00157 23.1444 6.83563 21.2827 8.13532 19.8342L8.88258 20.5694C8.99696 20.682 9.14696 20.7382 9.29688 20.7382C9.4468 20.7382 9.5968 20.682 9.71118 20.5695C9.94 20.3442 9.94 19.9793 9.71118 19.7542L8.96493 19.0199C10.4387 17.7469 12.3302 16.9317 14.4081 16.8019V17.8411C14.4081 18.1596 14.6704 18.4176 14.994 18.4176C15.3176 18.4176 15.5799 18.1596 15.5799 17.8411V16.8019C17.657 16.9318 19.5479 17.7467 21.0212 19.0196L20.2745 19.7542C20.0457 19.9794 20.0458 20.3444 20.2745 20.5695C20.389 20.682 20.5389 20.7382 20.6888 20.7382C20.8388 20.7382 20.9888 20.682 21.1032 20.5694L21.8507 19.8339C23.1502 21.2825 23.9842 23.1442 24.1204 25.1906H23.0474C22.7238 25.1906 22.4615 25.4487 22.4615 25.7671C22.4615 26.0856 22.7237 26.3435 23.0473 26.3435Z" fill="url(#paint3_linear_75_627)"/>
<path d="M32.222 8.76495C32.1382 8.67786 32.052 8.58955 31.9643 8.49961C30.9769 7.487 29.8578 6.33933 29.9166 4.75014C29.9387 4.17335 29.6297 3.86451 29.3332 3.76773C29.0415 3.67242 28.617 3.73214 28.3004 4.18473C28.3004 4.1848 28.3004 4.1848 28.3004 4.18488C28.2292 4.28672 28.151 4.39772 28.0673 4.5164C26.599 6.60051 25.0325 8.96003 25.0325 10.5835C25.0325 13.223 27.125 14.8567 29.0639 14.8567C30.6793 14.8567 32.1993 13.8629 32.8462 12.3836C33.4054 11.105 33.1721 9.7522 32.222 8.76495ZM31.7698 11.928C31.3833 12.812 30.3966 13.7038 29.0639 13.7038C27.6886 13.7038 26.2043 12.5109 26.2043 10.5836C26.2043 9.29809 27.8161 6.9062 28.7893 5.51641C29.0324 7.15824 30.1753 8.33036 31.1187 9.29793C31.2046 9.38602 31.289 9.47249 31.3711 9.55789C31.9983 10.2093 32.1436 11.0734 31.7698 11.928Z" fill="url(#paint4_linear_75_627)"/>
<defs>
<linearGradient id="paint0_linear_75_627" x1="11.9244" y1="23.0985" x2="19.591" y2="23.1169" gradientUnits="userSpaceOnUse">
<stop stop-color="#7AC8FF"/>
<stop offset="0.500395" stop-color="#547BED"/>
<stop offset="1" stop-color="#FF719D"/>
</linearGradient>
<linearGradient id="paint1_linear_75_627" x1="0.855835" y1="11.5509" x2="27.4912" y2="11.6236" gradientUnits="userSpaceOnUse">
<stop stop-color="#7AC8FF"/>
<stop offset="0.500395" stop-color="#547BED"/>
<stop offset="1" stop-color="#FF719D"/>
</linearGradient>
<linearGradient id="paint2_linear_75_627" x1="1.1123" y1="29.2555" x2="29.1307" y2="29.3697" gradientUnits="userSpaceOnUse">
<stop stop-color="#7AC8FF"/>
<stop offset="0.500395" stop-color="#547BED"/>
<stop offset="1" stop-color="#FF719D"/>
</linearGradient>
<linearGradient id="paint3_linear_75_627" x1="4.67297" y1="24.3926" x2="25.3127" y2="24.4485" gradientUnits="userSpaceOnUse">
<stop stop-color="#7AC8FF"/>
<stop offset="0.500395" stop-color="#547BED"/>
<stop offset="1" stop-color="#FF719D"/>
</linearGradient>
<linearGradient id="paint4_linear_75_627" x1="25.0325" y1="8.53069" x2="33.1457" y2="8.54646" gradientUnits="userSpaceOnUse">
<stop stop-color="#7AC8FF"/>
<stop offset="0.500395" stop-color="#547BED"/>
<stop offset="1" stop-color="#FF719D"/>
</linearGradient>
</defs>
</svg>
