<svg width="40" height="36" viewBox="0 0 40 36" fill="none" xmlns="http://www.w3.org/2000/svg">
<path d="M33.0298 10.7606H30.1213V7.71174C30.1213 5.9646 29.4531 4.30024 28.2399 3.02544C28.0144 2.78839 27.6362 2.77624 27.3955 2.99815C27.1546 3.22006 27.1422 3.59201 27.3677 3.82891C28.3728 4.88511 28.9264 6.26406 28.9264 7.71174V10.7606H16.7692C12.9259 10.7606 9.79906 13.837 9.79906 17.6184V19.7213H8.86328C8.49102 19.7213 8.14094 19.8639 7.87758 20.123L4.70664 23.2428V20.1044C4.70664 19.6236 4.445 19.1718 4.02367 18.9253C2.27883 17.9046 1.19484 16.0324 1.19484 14.0392V7.71174C1.19484 4.57857 3.78562 2.02958 6.97016 2.02958H23.1511C23.8975 2.02958 24.6235 2.16739 25.309 2.43934C25.615 2.56056 25.9631 2.41498 26.0865 2.11397C26.2098 1.81289 26.0618 1.47038 25.7558 1.34901C24.9277 1.02049 24.0513 0.854004 23.1511 0.854004H6.97016C3.1268 0.854004 0 3.93037 0 7.71174V14.0392C0 16.4449 1.30781 18.7043 3.41305 19.9358C3.47398 19.9715 3.5118 20.036 3.5118 20.1044V23.5266C3.5118 23.9561 3.77234 24.3397 4.17563 24.5041C4.44477 24.6314 4.9943 24.613 5.34758 24.2748L8.72242 20.9543C8.76008 20.9173 8.81008 20.8969 8.86328 20.8969H9.79906V23.9458C9.79906 24.8714 9.98344 25.7695 10.347 26.6154C10.4755 26.9143 10.8261 27.0539 11.13 26.9277C11.4339 26.8013 11.576 26.4564 11.4476 26.1574C11.1466 25.4573 10.994 24.7133 10.994 23.9458V17.6185C10.994 14.4852 13.5848 11.9362 16.7693 11.9362H33.0298C36.2144 11.9362 38.8052 14.4852 38.8052 17.6185V23.9458C38.8052 25.9468 37.7652 27.763 36.0233 28.8042C35.6127 29.0496 35.3577 29.4975 35.3577 29.973V33.8067L31.5187 30.0296C31.2555 29.7706 30.9054 29.6279 30.533 29.6279H16.7692C15.3199 29.6279 13.9341 29.0976 12.8668 28.1346C12.6237 27.9153 12.2458 27.9313 12.0227 28.1705C11.7996 28.4098 11.8159 28.7816 12.0591 29.001C13.3473 30.1634 15.02 30.8036 16.7691 30.8036H30.5329C30.5853 30.8036 30.6366 30.8245 30.6737 30.861L34.7166 34.8387C35.0288 35.0747 35.3339 35.2572 35.8884 35.068C36.2917 34.9035 36.5523 34.5199 36.5523 34.0905V29.9729C36.5523 29.9053 36.5873 29.8424 36.6435 29.8088C38.7453 28.5526 40 26.3609 40 23.9458V17.6184C40 13.837 36.8732 10.7606 33.0298 10.7606Z" fill="url(#paint0_linear_75_610)"/>
<path d="M23.2123 24.7787C22.862 24.2917 22.2238 23.9652 21.4959 23.9652C20.3923 23.9652 19.4945 24.7158 19.4945 25.6384C19.4945 26.5609 20.3923 27.3115 21.4959 27.3115C22.4644 27.3115 23.2741 26.7336 23.4581 25.9686C24.3394 25.6034 25.0331 24.8757 25.3342 23.9551C26.2067 23.7597 26.8601 22.9907 26.8601 22.0739V19.9543C26.8601 19.0692 26.2512 18.3219 25.424 18.0953C25.2293 16.9148 24.6396 15.8315 23.7356 15.0128C22.727 14.0993 21.416 13.5962 20.0443 13.5962C17.345 13.5962 15.0873 15.5091 14.6641 18.0954C13.8372 18.3222 13.2285 19.0694 13.2285 19.9542V22.0738C13.2285 23.1379 14.1084 24.0036 15.19 24.0036C16.2716 24.0036 17.1515 23.1379 17.1515 22.0738V19.9542C17.1515 19.1245 16.6164 18.4154 15.868 18.1433C16.2553 16.1959 17.9855 14.7718 20.0443 14.7718C22.077 14.7718 23.829 16.2208 24.2191 18.1439C23.4714 18.4164 22.9371 19.125 22.9371 19.9542V22.0738C22.9371 22.8581 23.4154 23.5342 24.0999 23.8358C23.91 24.2373 23.5976 24.5653 23.2123 24.7787ZM21.4959 26.136C21.0205 26.136 20.6893 25.8738 20.6893 25.6385C20.6893 25.4031 21.0205 25.1408 21.4959 25.1408C21.9713 25.1408 22.3027 25.4031 22.3027 25.6385C22.3027 25.8738 21.9712 26.136 21.4959 26.136ZM15.9566 22.0739C15.9566 22.4898 15.6127 22.8282 15.19 22.8282C14.7673 22.8282 14.4234 22.4898 14.4234 22.0739V19.9544C14.4234 19.5385 14.7673 19.2001 15.19 19.2001C15.6127 19.2001 15.9566 19.5385 15.9566 19.9544V22.0739ZM24.132 19.9544C24.132 19.5385 24.4759 19.2001 24.8986 19.2001C25.3213 19.2001 25.6652 19.5385 25.6652 19.9544V22.0739C25.6652 22.4898 25.3213 22.8282 24.8986 22.8282C24.4759 22.8282 24.132 22.4898 24.132 22.0739V19.9544Z" fill="url(#paint1_linear_75_610)"/>
<path d="M28.4136 16.9275H33.1723C33.5022 16.9275 33.7697 16.6644 33.7697 16.3397C33.7697 16.0151 33.5022 15.752 33.1723 15.752H28.4136C28.0837 15.752 27.8162 16.0151 27.8162 16.3397C27.8162 16.6644 28.0837 16.9275 28.4136 16.9275Z" fill="url(#paint2_linear_75_610)"/>
<path d="M28.4136 19.5589H32.0829C32.4128 19.5589 32.6803 19.2958 32.6803 18.9711C32.6803 18.6464 32.4128 18.3833 32.0829 18.3833H28.4136C28.0837 18.3833 27.8162 18.6464 27.8162 18.9711C27.8162 19.2958 28.0837 19.5589 28.4136 19.5589Z" fill="url(#paint3_linear_75_610)"/>
<path d="M5.87752 9.41869C6.36944 9.41869 6.76822 9.02634 6.76822 8.54235C6.76822 8.05837 6.36944 7.66602 5.87752 7.66602C5.3856 7.66602 4.98682 8.05837 4.98682 8.54235C4.98682 9.02634 5.3856 9.41869 5.87752 9.41869Z" fill="url(#paint4_linear_75_610)"/>
<path d="M8.57576 9.41869C9.06768 9.41869 9.46646 9.02634 9.46646 8.54235C9.46646 8.05837 9.06768 7.66602 8.57576 7.66602C8.08384 7.66602 7.68506 8.05837 7.68506 8.54235C7.68506 9.02634 8.08384 9.41869 8.57576 9.41869Z" fill="url(#paint5_linear_75_610)"/>
<path d="M11.2567 9.41869C11.7486 9.41869 12.1474 9.02634 12.1474 8.54235C12.1474 8.05837 11.7486 7.66602 11.2567 7.66602C10.7647 7.66602 10.366 8.05837 10.366 8.54235C10.366 9.02634 10.7647 9.41869 11.2567 9.41869Z" fill="url(#paint6_linear_75_610)"/>
<defs>
<linearGradient id="paint0_linear_75_610" x1="-1.71808e-07" y1="15.6515" x2="40.0003" y2="15.7759" gradientUnits="userSpaceOnUse">
<stop stop-color="#7AC8FF"/>
<stop offset="0.500395" stop-color="#547BED"/>
<stop offset="1" stop-color="#FF719D"/>
</linearGradient>
<linearGradient id="paint1_linear_75_610" x1="13.2285" y1="19.5144" x2="26.8602" y2="19.5506" gradientUnits="userSpaceOnUse">
<stop stop-color="#7AC8FF"/>
<stop offset="0.500395" stop-color="#547BED"/>
<stop offset="1" stop-color="#FF719D"/>
</linearGradient>
<linearGradient id="paint2_linear_75_610" x1="27.8162" y1="16.2592" x2="33.7687" y2="16.3396" gradientUnits="userSpaceOnUse">
<stop stop-color="#7AC8FF"/>
<stop offset="0.500395" stop-color="#547BED"/>
<stop offset="1" stop-color="#FF719D"/>
</linearGradient>
<linearGradient id="paint3_linear_75_610" x1="27.8162" y1="18.8906" x2="32.6798" y2="18.9442" gradientUnits="userSpaceOnUse">
<stop stop-color="#7AC8FF"/>
<stop offset="0.500395" stop-color="#547BED"/>
<stop offset="1" stop-color="#FF719D"/>
</linearGradient>
<linearGradient id="paint4_linear_75_610" x1="4.98682" y1="8.42231" x2="6.76824" y2="8.42713" gradientUnits="userSpaceOnUse">
<stop stop-color="#7AC8FF"/>
<stop offset="0.500395" stop-color="#547BED"/>
<stop offset="1" stop-color="#FF719D"/>
</linearGradient>
<linearGradient id="paint5_linear_75_610" x1="7.68506" y1="8.42231" x2="9.46648" y2="8.42713" gradientUnits="userSpaceOnUse">
<stop stop-color="#7AC8FF"/>
<stop offset="0.500395" stop-color="#547BED"/>
<stop offset="1" stop-color="#FF719D"/>
</linearGradient>
<linearGradient id="paint6_linear_75_610" x1="10.366" y1="8.42231" x2="12.1474" y2="8.42713" gradientUnits="userSpaceOnUse">
<stop stop-color="#7AC8FF"/>
<stop offset="0.500395" stop-color="#547BED"/>
<stop offset="1" stop-color="#FF719D"/>
</linearGradient>
</defs>
</svg>
