<svg width="34" height="33" viewBox="0 0 34 33" fill="none" xmlns="http://www.w3.org/2000/svg">
<g clip-path="url(#clip0_73_40)">
<path d="M18.581 16.6598L32.7625 2.75047C33.2618 2.26076 33.2618 1.46679 32.7625 0.977145C32.2632 0.487499 31.4537 0.487436 30.9544 0.977145L16.7729 14.8865L2.59142 0.977145C2.09213 0.487436 1.28263 0.487436 0.783397 0.977145C0.284169 1.46685 0.284105 2.26082 0.783397 2.75047L14.9649 16.6597L0.783397 30.5691C0.284105 31.0588 0.284105 31.8528 0.783397 32.3424C1.03301 32.5872 1.36023 32.7096 1.68744 32.7096C2.01466 32.7096 2.34181 32.5872 2.59149 32.3424L16.7729 18.4331L30.9544 32.3424C31.204 32.5872 31.5312 32.7096 31.8584 32.7096C32.1856 32.7096 32.5128 32.5872 32.7625 32.3424C33.2618 31.8527 33.2618 31.0587 32.7625 30.5691L18.581 16.6598Z" fill="black"/>
</g>
<defs>
<clipPath id="clip0_73_40">
<rect width="32.728" height="32.0998" fill="white" transform="translate(0.40918 0.608887)"/>
</clipPath>
</defs>
</svg>
