<svg width="13" height="55" viewBox="0 0 13 55" fill="none" xmlns="http://www.w3.org/2000/svg">
<g clip-path="url(#clip0_508_144)">
<path d="M12.6197 3.9912L5.76167 10.8488C5.25382 11.3567 4.43002 11.3567 3.92169 10.8488L0.381518 7.30834C-0.126521 6.8004 -0.126521 5.97649 0.381518 5.46845C0.889653 4.96032 1.7134 4.96032 2.22131 5.46826L4.84195 8.08894L10.7796 2.15122C11.2878 1.64309 12.1116 1.64347 12.6195 2.15122C13.1275 2.65926 13.1275 3.48287 12.6197 3.9912Z" fill="#F1588A"/>
</g>
<g clip-path="url(#clip1_508_144)">
<path d="M12.6197 45.9912L5.76167 52.8488C5.25382 53.3567 4.43002 53.3567 3.92169 52.8488L0.381518 49.3083C-0.126521 48.8004 -0.126521 47.9765 0.381518 47.4685C0.889653 46.9603 1.7134 46.9603 2.22131 47.4683L4.84195 50.0889L10.7796 44.1512C11.2878 43.6431 12.1116 43.6435 12.6195 44.1512C13.1275 44.6593 13.1275 45.4829 12.6197 45.9912Z" fill="#F1588A"/>
</g>
<g clip-path="url(#clip2_508_144)">
<path d="M12.6197 24.9912L5.76167 31.8488C5.25382 32.3567 4.43002 32.3567 3.92169 31.8488L0.381518 28.3083C-0.126521 27.8004 -0.126521 26.9765 0.381518 26.4685C0.889653 25.9603 1.7134 25.9603 2.22131 26.4683L4.84195 29.0889L10.7796 23.1512C11.2878 22.6431 12.1116 22.6435 12.6195 23.1512C13.1275 23.6593 13.1275 24.4829 12.6197 24.9912Z" fill="#F1588A"/>
</g>
<defs>
<clipPath id="clip0_508_144">
<rect width="13" height="13" fill="white"/>
</clipPath>
<clipPath id="clip1_508_144">
<rect width="13" height="13" fill="white" transform="translate(0 42)"/>
</clipPath>
<clipPath id="clip2_508_144">
<rect width="13" height="13" fill="white" transform="translate(0 21)"/>
</clipPath>
</defs>
</svg>
