<svg width="128" height="21" viewBox="0 0 128 21" fill="none" xmlns="http://www.w3.org/2000/svg">
<path d="M10 0.097168L12.2451 7.007H19.5106L13.6327 11.2775L15.8779 18.1873L10 13.9168L4.12215 18.1873L6.36729 11.2775L0.489435 7.007H7.75486L10 0.097168Z" fill="url(#paint0_linear_75_546)"/>
<path d="M37 0.097168L39.2451 7.007H46.5106L40.6327 11.2775L42.8779 18.1873L37 13.9168L31.1221 18.1873L33.3673 11.2775L27.4894 7.007H34.7549L37 0.097168Z" fill="url(#paint1_linear_75_546)"/>
<path d="M64 0.097168L66.2451 7.007H73.5106L67.6327 11.2775L69.8779 18.1873L64 13.9168L58.1221 18.1873L60.3673 11.2775L54.4894 7.007H61.7549L64 0.097168Z" fill="url(#paint2_linear_75_546)"/>
<path d="M91 0.097168L93.2451 7.007H100.511L94.6327 11.2775L96.8779 18.1873L91 13.9168L85.1221 18.1873L87.3673 11.2775L81.4894 7.007H88.7549L91 0.097168Z" fill="url(#paint3_linear_75_546)"/>
<path d="M118 0.097168L120.245 7.007H127.511L121.633 11.2775L123.878 18.1873L118 13.9168L112.122 18.1873L114.367 11.2775L108.489 7.007H115.755L118 0.097168Z" fill="url(#paint4_linear_75_546)"/>
<defs>
<linearGradient id="paint0_linear_75_546" x1="-8.5904e-08" y1="8.7273" x2="20.0002" y2="8.78063" gradientUnits="userSpaceOnUse">
<stop stop-color="#7AC8FF"/>
<stop offset="0.500395" stop-color="#547BED"/>
<stop offset="1" stop-color="#FF719D"/>
</linearGradient>
<linearGradient id="paint1_linear_75_546" x1="27" y1="8.7273" x2="47.0002" y2="8.78063" gradientUnits="userSpaceOnUse">
<stop stop-color="#7AC8FF"/>
<stop offset="0.500395" stop-color="#547BED"/>
<stop offset="1" stop-color="#FF719D"/>
</linearGradient>
<linearGradient id="paint2_linear_75_546" x1="54" y1="8.7273" x2="74.0002" y2="8.78063" gradientUnits="userSpaceOnUse">
<stop stop-color="#7AC8FF"/>
<stop offset="0.500395" stop-color="#547BED"/>
<stop offset="1" stop-color="#FF719D"/>
</linearGradient>
<linearGradient id="paint3_linear_75_546" x1="81" y1="8.7273" x2="101" y2="8.78063" gradientUnits="userSpaceOnUse">
<stop stop-color="#7AC8FF"/>
<stop offset="0.500395" stop-color="#547BED"/>
<stop offset="1" stop-color="#FF719D"/>
</linearGradient>
<linearGradient id="paint4_linear_75_546" x1="108" y1="8.7273" x2="128" y2="8.78063" gradientUnits="userSpaceOnUse">
<stop stop-color="#7AC8FF"/>
<stop offset="0.500395" stop-color="#547BED"/>
<stop offset="1" stop-color="#FF719D"/>
</linearGradient>
</defs>
</svg>
