<svg width="55" height="55" viewBox="0 0 55 55" fill="none" xmlns="http://www.w3.org/2000/svg">
<g clip-path="url(#clip0_75_646)">
<path fill-rule="evenodd" clip-rule="evenodd" d="M0.916753 11.4585H35.7501C36.257 11.4585 36.6668 11.8692 36.6668 12.3751V17.8752H45.8342C46.1459 17.8752 46.4365 18.0337 46.6052 18.2959L54.8552 31.1293C54.9506 31.2768 55.0009 31.4501 55.0008 31.6252V41.7085C55.0008 42.2155 54.5911 42.6252 54.0842 42.6252H49.4229C48.9855 45.2236 46.7203 47.2087 43.9993 47.2087C41.2781 47.2087 39.013 45.2235 38.5756 42.6251H35.7613L35.7501 42.6251H18.2576C17.8202 45.2235 15.555 47.2086 12.834 47.2086C10.1129 47.2086 7.84774 45.2235 7.41028 42.6251H0.916753C0.410796 42.6251 0.00012207 42.2154 0.00012207 41.7085V12.3751C0.00012207 11.8692 0.410796 11.4585 0.916753 11.4585ZM7.41033 40.7918C7.84792 38.1935 10.113 36.2086 12.834 36.2086C15.5548 36.2086 17.82 38.1935 18.2576 40.7918H34.8335V16.9586H3.6671V15.1252H34.8335V13.2918H1.83349V37.125H6.41502V38.9584H1.83349V40.7918H7.41033ZM38.5756 40.7917H36.6676V19.7085H45.3337L46.5123 21.5419H39.4159C38.909 21.5419 38.4993 21.9526 38.4993 22.4585V30.7085C38.4993 31.2155 38.909 31.6252 39.4159 31.6252H52.9943L53.1676 31.8947V37.1252H50.4166V38.9585H53.1676V40.7919H49.4229C48.9853 38.1936 46.7202 36.2087 43.9993 36.2087C41.2783 36.2087 39.0133 38.1935 38.5756 40.7917ZM51.8157 29.7918L47.6659 23.3364V23.3753H40.3325V29.7918H51.8157ZM12.834 45.3752C10.8117 45.3752 9.16732 43.7307 9.16732 41.7086C9.16732 39.6864 10.8118 38.042 12.834 38.042C14.8561 38.042 16.5006 39.6865 16.5006 41.7086C16.5006 43.7307 14.8561 45.3752 12.834 45.3752ZM43.9993 45.3753C41.977 45.3753 40.3326 43.7308 40.3326 41.7087C40.3326 39.6864 41.9771 38.042 43.9993 38.042C46.0215 38.042 47.6659 39.6865 47.6659 41.7087C47.6659 43.7308 46.0215 45.3753 43.9993 45.3753ZM19.2486 37.125H34.832V38.9584H19.2486V37.125ZM13.7499 40.7919H11.9166V42.6252H13.7499V40.7919ZM43.0844 40.7919H44.9178V42.6252H43.0844V40.7919Z" fill="url(#paint0_linear_75_646)"/>
</g>
<defs>
<linearGradient id="paint0_linear_75_646" x1="0.000121834" y1="26.8849" x2="55.0009" y2="27.1106" gradientUnits="userSpaceOnUse">
<stop stop-color="#4EB6FF"/>
<stop offset="0.500395" stop-color="#3662E4"/>
<stop offset="1" stop-color="#F45788"/>
</linearGradient>
<clipPath id="clip0_75_646">
<rect width="55" height="55" fill="white"/>
</clipPath>
</defs>
</svg>
