<svg width="57" height="57" viewBox="0 0 57 57" fill="none" xmlns="http://www.w3.org/2000/svg">
<path d="M16.0308 37.4063H49.8745C50.0792 37.4063 50.2776 37.3358 50.4364 37.2067C50.5952 37.0775 50.7047 36.8977 50.7464 36.6973L55.1996 15.3223C55.2266 15.1927 55.2243 15.0587 55.1931 14.9301C55.1618 14.8015 55.1022 14.6815 55.0187 14.5787C54.9352 14.476 54.8298 14.3932 54.7103 14.3364C54.5907 14.2795 54.46 14.25 54.3276 14.25H11.7067L9.77267 6.03031C9.72668 5.83492 9.61604 5.6608 9.45868 5.53618C9.30133 5.41156 9.10649 5.34375 8.90576 5.34375H2.67139C2.43518 5.34375 2.20864 5.43758 2.04162 5.60461C1.8746 5.77163 1.78076 5.99817 1.78076 6.23438C1.78076 6.47058 1.8746 6.69712 2.04162 6.86414C2.20864 7.03117 2.43518 7.125 2.67139 7.125H8.20039L14.9461 35.7944C14.2273 36.0252 13.6001 36.478 13.1549 37.0876C12.7096 37.6973 12.4692 38.4325 12.4683 39.1875V40.9688C12.4693 41.9133 12.845 42.8188 13.5129 43.4866C14.1807 44.1545 15.0863 44.5302 16.0308 44.5313H16.0332C15.5362 45.1927 15.2333 45.9795 15.1584 46.8034C15.0835 47.6274 15.2397 48.4559 15.6094 49.1961C15.979 49.9362 16.5476 50.5588 17.2512 50.9939C17.9549 51.429 18.7659 51.6595 19.5933 51.6595C20.4206 51.6595 21.2316 51.429 21.9353 50.9939C22.639 50.5588 23.2075 49.9362 23.5772 49.1961C23.9468 48.4559 24.103 47.6274 24.0281 46.8034C23.9533 45.9795 23.6503 45.1927 23.1533 44.5313H40.9707C40.4737 45.1927 40.1708 45.9795 40.0959 46.8034C40.021 47.6274 40.1772 48.4559 40.5469 49.1961C40.9165 49.9362 41.4851 50.5588 42.1887 50.9939C42.8924 51.429 43.7034 51.6595 44.5308 51.6595C45.3581 51.6595 46.1691 51.429 46.8728 50.9939C47.5765 50.5588 48.145 49.9362 48.5147 49.1961C48.8843 48.4559 49.0405 47.6274 48.9656 46.8034C48.8908 45.9795 48.5878 45.1927 48.0908 44.5313H51.6558C51.892 44.5313 52.1185 44.4374 52.2855 44.2704C52.4526 44.1034 52.5464 43.8768 52.5464 43.6406C52.5464 43.4044 52.4526 43.1779 52.2855 43.0109C52.1185 42.8438 51.892 42.75 51.6558 42.75H16.0308C15.5585 42.7494 15.1058 42.5616 14.7718 42.2277C14.4379 41.8937 14.2501 41.441 14.2495 40.9688V39.1875C14.2501 38.7153 14.4379 38.2625 14.7718 37.9286C15.1058 37.5947 15.5585 37.4068 16.0308 37.4063ZM16.7361 35.625L15.8979 32.0625H20.811L21.2563 35.625H16.7364H16.7361ZM36.032 26.7188L35.8835 30.2813H30.0218L29.8733 26.7188H36.032ZM29.7992 24.9375L29.6506 21.375H36.2546L36.1061 24.9375H29.7992ZM28.239 30.2813H22.3831L21.9378 26.7188H28.0903L28.239 30.2813ZM28.3132 32.0625L28.4617 35.625H23.0511L22.6058 32.0625H28.3132ZM30.096 32.0625H35.8093L35.6608 35.625H30.2445L30.096 32.0625ZM37.5921 32.0625H43.2993L42.8539 35.625H37.4434L37.5921 32.0625ZM37.6663 30.2813L37.8148 26.7188H43.9672L43.5219 30.2813H37.6663ZM45.7623 26.7188H51.0058L50.2642 30.2813H45.317L45.7623 26.7188ZM45.9849 24.9375L46.4302 21.375H52.1191L51.3774 24.9375H45.9849ZM44.1899 24.9375H37.8887L38.0372 21.375H44.635L44.1899 24.9375ZM38.1114 19.5938L38.2599 16.0313H45.3029L44.8576 19.5938H38.1114ZM36.3286 19.5938H29.5765L29.428 16.0313H36.4773L36.3286 19.5938ZM27.7935 19.5938H21.047L20.6017 16.0313H27.6447L27.7935 19.5938ZM27.8676 21.375L28.0161 24.9375H21.715L21.2696 21.375H27.8676ZM19.9201 24.9375H14.2212L13.383 21.375H19.4748L19.9201 24.9375ZM20.1428 26.7188L20.5881 30.2813H15.4781L14.6399 26.7188H20.1428ZM49.1509 35.625H44.649L45.0943 32.0625H49.8925L49.1509 35.625ZM52.4907 19.5938H46.6529L47.0982 16.0313H53.2324L52.4907 19.5938ZM18.8071 16.0313L19.2524 19.5938H12.9641L12.1259 16.0313H18.8071ZM22.2651 47.2031C22.2651 47.7316 22.1084 48.2482 21.8148 48.6875C21.5213 49.1269 21.104 49.4694 20.6157 49.6716C20.1275 49.8738 19.5903 49.9268 19.072 49.8237C18.5537 49.7206 18.0776 49.4661 17.704 49.0924C17.3303 48.7188 17.0758 48.2427 16.9727 47.7244C16.8696 47.2061 16.9225 46.6689 17.1248 46.1806C17.327 45.6924 17.6695 45.2751 18.1088 44.9815C18.5482 44.688 19.0648 44.5313 19.5933 44.5313C20.3016 44.5321 20.9808 44.8138 21.4817 45.3147C21.9825 45.8156 22.2643 46.4948 22.2651 47.2031ZM47.2026 47.2031C47.2026 47.7316 47.0459 48.2482 46.7523 48.6875C46.4588 49.1269 46.0415 49.4694 45.5532 49.6716C45.065 49.8738 44.5278 49.9268 44.0095 49.8237C43.4912 49.7206 43.0151 49.4661 42.6415 49.0924C42.2678 48.7188 42.0133 48.2427 41.9102 47.7244C41.8071 47.2061 41.86 46.6689 42.0623 46.1806C42.2645 45.6924 42.607 45.2751 43.0464 44.9815C43.4857 44.688 44.0023 44.5313 44.5308 44.5313C45.2391 44.5321 45.9183 44.8138 46.4192 45.3147C46.92 45.8156 47.2018 46.4948 47.2026 47.2031ZM18.7026 47.2031C18.7026 47.027 18.7549 46.8548 18.8527 46.7083C18.9506 46.5619 19.0897 46.4477 19.2524 46.3803C19.4152 46.3129 19.5943 46.2953 19.767 46.3296C19.9398 46.364 20.0985 46.4488 20.223 46.5734C20.3476 46.6979 20.4324 46.8566 20.4668 47.0294C20.5011 47.2021 20.4835 47.3812 20.4161 47.544C20.3487 47.7067 20.2345 47.8458 20.0881 47.9437C19.9416 48.0415 19.7694 48.0938 19.5933 48.0938C19.3571 48.0938 19.1305 47.9999 18.9635 47.8329C18.7965 47.6659 18.7026 47.4393 18.7026 47.2031ZM43.6401 47.2031C43.6401 47.027 43.6924 46.8548 43.7902 46.7083C43.8881 46.5619 44.0272 46.4477 44.1899 46.3803C44.3527 46.3129 44.5318 46.2953 44.7045 46.3296C44.8773 46.364 45.036 46.4488 45.1605 46.5734C45.2851 46.6979 45.3699 46.8566 45.4043 47.0294C45.4386 47.2021 45.421 47.3812 45.3536 47.544C45.2862 47.7067 45.172 47.8458 45.0256 47.9437C44.8791 48.0415 44.7069 48.0938 44.5308 48.0938C44.2946 48.0938 44.068 47.9999 43.901 47.8329C43.734 47.6659 43.6401 47.4393 43.6401 47.2031Z" fill="url(#paint0_linear_75_574)"/>
<defs>
<linearGradient id="paint0_linear_75_574" x1="1.78076" y1="25.3293" x2="55.2188" y2="25.4937" gradientUnits="userSpaceOnUse">
<stop stop-color="#7AC8FF"/>
<stop offset="0.500395" stop-color="#547BED"/>
<stop offset="1" stop-color="#FF719D"/>
</linearGradient>
</defs>
</svg>
