<svg width="173" height="191" viewBox="0 0 173 191" fill="none" xmlns="http://www.w3.org/2000/svg">
<g opacity="0.75">
<path d="M59.0775 94.2078C60.3551 92.9927 61.9834 92.9373 62.9486 94.0655C63.9226 95.2039 63.703 96.9059 62.4368 98.1101C61.1592 99.3251 59.5423 99.3697 58.5657 98.2523C57.5918 97.114 57.8 95.4228 59.0775 94.2078Z" fill="url(#paint0_linear_75_30)"/>
<path d="M37.1595 115.047C38.4197 113.811 40.065 113.703 41.0531 114.81C42.05 115.926 41.868 117.648 40.6306 118.862C39.3704 120.097 37.7365 120.194 36.7484 119.088C35.7314 117.972 35.9107 116.271 37.1595 115.047Z" fill="url(#paint1_linear_75_30)"/>
<path d="M15.3203 135.81C16.5892 134.585 18.229 134.518 19.2057 135.636C20.1911 136.763 19.9803 138.476 18.7228 139.69C17.4539 140.915 15.8342 140.981 14.8487 139.853C13.8546 138.715 14.0514 137.035 15.3203 135.81Z" fill="url(#paint2_linear_75_30)"/>
<path d="M125.513 55.9265C124.235 57.1415 122.615 57.207 121.641 56.0684C120.667 54.9298 120.875 53.2384 122.153 52.0233C123.43 50.8083 125.059 50.753 126.024 51.8814C127.001 52.999 126.77 54.7121 125.513 55.9265Z" fill="url(#paint3_linear_75_30)"/>
<path d="M103.672 76.6898C102.403 77.9149 100.781 78.0015 99.7842 76.8847C98.7901 75.747 98.9781 74.0565 100.236 72.8423C101.504 71.6171 103.138 71.5197 104.115 72.6371C105.112 73.7538 104.91 75.4762 103.672 76.6898Z" fill="url(#paint4_linear_75_30)"/>
<path d="M78.4323 93.5713C79.7072 92.3771 81.3443 92.3319 82.3069 93.4813C83.2608 94.6206 83.0184 96.3446 81.7435 97.5387C80.4572 98.7437 78.843 98.7672 77.8804 97.6178C76.9064 96.4792 77.146 94.7763 78.4323 93.5713Z" fill="url(#paint5_linear_75_30)"/>
<path d="M56.4436 114.478C57.695 113.233 59.343 113.104 60.3452 114.178C61.3534 115.284 61.2029 116.994 59.9829 118.228C58.7315 119.473 57.0836 119.602 56.0927 118.517C55.0557 117.402 55.2035 115.713 56.4436 114.478Z" fill="url(#paint6_linear_75_30)"/>
<path d="M34.6165 135.23C35.8854 134.005 37.5279 133.917 38.4959 135.024C39.4812 136.152 39.2905 137.863 38.033 139.078C36.7641 140.303 35.133 140.379 34.1563 139.262C33.1709 138.134 33.359 136.444 34.6165 135.23Z" fill="url(#paint7_linear_75_30)"/>
<path d="M122.946 76.1317C121.66 77.3366 120.043 77.381 119.08 76.2317C118.106 75.0931 118.334 73.4012 119.612 72.1862C120.889 70.9711 122.515 70.9368 123.489 72.0754C124.443 73.2146 124.212 74.9275 122.946 76.1317Z" fill="url(#paint8_linear_75_30)"/>
<path d="M101.474 92.7296C102.526 93.8134 102.415 95.5224 101.233 96.7762C100.007 98.0524 98.3426 98.2345 97.3262 97.1915C96.2751 96.1078 96.374 94.4095 97.5651 93.1659C98.8046 91.8579 100.458 91.6866 101.474 92.7296Z" fill="url(#paint9_linear_75_30)"/>
<path d="M75.7633 113.877C77.0148 112.632 78.654 112.492 79.6534 113.588C80.6615 114.693 80.5109 116.403 79.2909 117.637C78.0394 118.883 76.3915 119.012 75.4008 117.926C74.3753 116.8 74.5232 115.112 75.7633 113.877Z" fill="url(#paint10_linear_75_30)"/>
<path d="M54.0173 134.55C55.2922 133.356 56.9266 133.332 57.8779 134.492C58.8319 135.631 58.5809 137.345 57.2947 138.55C56.0111 139.734 54.3968 139.757 53.4341 138.608C52.4828 137.447 52.731 135.755 54.0173 134.55Z" fill="url(#paint11_linear_75_30)"/>
<path d="M120.405 96.3145C119.128 97.5293 117.519 97.5841 116.534 96.4567C115.56 95.3184 115.768 93.6275 117.046 92.4126C118.323 91.1977 119.952 91.1423 120.917 92.2704C121.882 93.3984 121.671 95.1104 120.405 96.3145Z" fill="url(#paint12_linear_75_30)"/>
<path d="M95.2214 113.142C96.505 111.958 98.1394 111.934 99.0907 113.094C100.033 114.244 99.7822 115.957 98.4872 117.152C97.2036 118.336 95.5893 118.359 94.6293 117.189C93.6667 116.04 93.915 114.347 95.2214 113.142Z" fill="url(#paint13_linear_75_30)"/>
<path d="M73.2569 134.024C74.5258 132.799 76.1682 132.711 77.1362 133.819C78.1216 134.947 77.9308 136.658 76.6734 137.873C75.4045 139.098 73.7821 139.185 72.7967 138.057C71.8113 136.929 71.9994 135.239 73.2569 134.024Z" fill="url(#paint14_linear_75_30)"/>
<path d="M117.931 116.433C116.679 117.678 115.031 117.808 114.041 116.722C113.024 115.606 113.171 113.917 114.4 112.693C115.652 111.448 117.3 111.319 118.302 112.393C119.313 113.478 119.151 115.199 117.931 116.433Z" fill="url(#paint15_linear_75_30)"/>
<path d="M92.5638 133.435C93.824 132.199 95.4693 132.091 96.4574 133.198C97.4543 134.315 97.2723 136.036 96.0349 137.25C94.7747 138.485 93.1408 138.583 92.1527 137.476C91.1357 136.36 91.315 134.659 92.5638 133.435Z" fill="url(#paint16_linear_75_30)"/>
<path d="M111.977 132.744C113.261 131.56 114.886 131.525 115.838 132.686C116.78 133.836 116.529 135.55 115.245 136.734C113.962 137.918 112.348 137.941 111.385 136.792C110.442 135.642 110.682 133.938 111.977 132.744Z" fill="url(#paint17_linear_75_30)"/>
<path d="M70.0945 37.551C68.8169 38.7658 67.1999 38.8104 66.2173 37.6621C65.2433 36.5239 65.4716 34.8323 66.7492 33.6175C68.0268 32.4027 69.6638 32.3575 70.6177 33.4963C71.5917 34.6345 71.3607 36.3471 70.0945 37.551Z" fill="url(#paint18_linear_75_30)"/>
<path d="M44.4772 58.5889C43.4259 57.5052 43.5247 55.8072 44.7159 54.5637C45.9527 53.2769 47.6062 53.1057 48.6227 54.1487C49.6653 55.2222 49.5637 56.9413 48.3725 58.1847C47.1558 59.4709 45.4823 59.6428 44.4772 58.5889Z" fill="url(#paint19_linear_75_30)"/>
<path d="M22.958 75.2511C24.2269 74.026 25.8694 73.9387 26.8374 75.0459C27.8228 76.1734 27.632 77.8848 26.3745 79.0991C25.1056 80.3242 23.4833 80.4108 22.4979 79.2833C21.5125 78.1558 21.7093 76.4755 22.958 75.2511Z" fill="url(#paint20_linear_75_30)"/>
<path d="M89.3811 36.98C88.0975 38.1641 86.4832 38.1876 85.5207 37.0381C84.5668 35.8987 84.8064 34.1956 86.1128 32.9898C87.3964 31.8057 89.022 31.7713 89.9732 32.9317C90.9184 34.0609 90.6673 35.7749 89.3811 36.98Z" fill="url(#paint21_linear_75_30)"/>
<path d="M64.1507 53.8529C65.4196 52.6277 67.0419 52.5411 68.03 53.6477C69.0154 54.7753 68.836 56.4761 67.5786 57.6905C66.3097 58.9158 64.6873 59.0024 63.6905 57.8856C62.7138 56.7681 62.9019 55.0775 64.1507 53.8529Z" fill="url(#paint22_linear_75_30)"/>
<path d="M42.2995 74.6276C43.5684 73.4026 45.1994 73.3262 46.1733 74.4643C47.1586 75.5916 46.9477 77.3034 45.6902 78.5175C44.4213 79.7425 42.793 79.7979 41.8163 78.6808C40.8337 77.5325 41.0305 75.8526 42.2995 74.6276Z" fill="url(#paint23_linear_75_30)"/>
<path d="M20.4485 95.4026C21.7261 94.1878 23.3431 94.1433 24.3171 95.2815C25.2911 96.4198 25.0601 98.1324 23.7852 99.3263C22.5076 100.541 20.8906 100.586 19.9079 99.4372C18.9541 98.2983 19.1709 96.6175 20.4485 95.4026Z" fill="url(#paint24_linear_75_30)"/>
<path d="M108.769 36.3139C107.5 37.5391 105.88 37.6046 104.894 36.477C103.909 35.3494 104.109 33.648 105.366 32.4337C106.635 31.2085 108.275 31.1422 109.251 32.2597C110.217 33.388 110.015 35.1104 108.769 36.3139Z" fill="url(#paint25_linear_75_30)"/>
<path d="M86.8947 57.1098C85.6258 58.335 84.0061 58.4005 83.0207 57.2729C82.0353 56.1453 82.2347 54.4439 83.4922 53.2296C84.7611 52.0044 86.4009 51.9381 87.3777 53.0556C88.343 54.1839 88.1408 55.9063 86.8947 57.1098Z" fill="url(#paint26_linear_75_30)"/>
<path d="M61.5509 74.0886C62.8024 72.8429 64.4504 72.7137 65.4527 73.7886C66.461 74.8947 66.3104 76.6052 65.0904 77.8393C63.8476 79.0952 62.191 79.2143 61.2001 78.1285C60.163 77.0129 60.3195 75.3337 61.5509 74.0886Z" fill="url(#paint27_linear_75_30)"/>
<path d="M39.7584 94.8086C41.036 93.5934 42.6644 93.5381 43.6298 94.6666C44.6038 95.8053 44.3843 97.5076 43.1268 98.7221C41.8492 99.9373 40.2295 100.003 39.2554 98.8642C38.2727 97.7153 38.4808 96.0238 39.7584 94.8086Z" fill="url(#paint28_linear_75_30)"/>
<path d="M17.873 115.617C19.1419 114.391 20.7817 114.325 21.7584 115.443C22.7438 116.57 22.533 118.283 21.2755 119.497C20.0066 120.723 18.3782 120.778 17.4015 119.66C16.4074 118.523 16.6041 116.842 17.873 115.617Z" fill="url(#paint29_linear_75_30)"/>
<path d="M128.076 35.7228C126.807 36.9482 125.179 37.0035 124.202 35.8858C123.217 34.758 123.416 33.0563 124.682 31.852C125.951 30.6266 127.591 30.5605 128.568 31.6781C129.536 32.7856 129.334 34.5083 128.076 35.7228Z" fill="url(#paint30_linear_75_30)"/>
<path d="M106.271 56.4529C105.029 57.7084 103.372 57.8275 102.381 56.742C101.364 55.6259 101.512 53.9369 102.732 52.703C103.983 51.4576 105.631 51.3284 106.634 52.4031C107.653 53.4981 107.491 55.219 106.271 56.4529Z" fill="url(#paint31_linear_75_30)"/>
<path d="M80.9283 73.4338C82.1972 72.2086 83.8397 72.1214 84.8164 73.2388C85.8018 74.3664 85.611 76.0778 84.3536 77.2921C83.0847 78.5172 81.4536 78.5936 80.4769 77.4762C79.4714 76.3494 79.6594 74.6589 80.9283 73.4338Z" fill="url(#paint32_linear_75_30)"/>
</g>
<defs>
<linearGradient id="paint0_linear_75_30" x1="62.7237" y1="93.8026" x2="58.1364" y2="97.7522" gradientUnits="userSpaceOnUse">
<stop stop-color="#7AC8FF"/>
<stop offset="0.500395" stop-color="#547BED"/>
<stop offset="1" stop-color="#FF719D"/>
</linearGradient>
<linearGradient id="paint1_linear_75_30" x1="40.8671" y1="114.591" x2="36.2787" y2="118.542" gradientUnits="userSpaceOnUse">
<stop stop-color="#7AC8FF"/>
<stop offset="0.500395" stop-color="#547BED"/>
<stop offset="1" stop-color="#FF719D"/>
</linearGradient>
<linearGradient id="paint2_linear_75_30" x1="18.9933" y1="135.387" x2="14.4057" y2="139.337" gradientUnits="userSpaceOnUse">
<stop stop-color="#7AC8FF"/>
<stop offset="0.500395" stop-color="#547BED"/>
<stop offset="1" stop-color="#FF719D"/>
</linearGradient>
<linearGradient id="paint3_linear_75_30" x1="125.799" y1="51.6183" x2="121.212" y2="55.5681" gradientUnits="userSpaceOnUse">
<stop stop-color="#7AC8FF"/>
<stop offset="0.500395" stop-color="#547BED"/>
<stop offset="1" stop-color="#FF719D"/>
</linearGradient>
<linearGradient id="paint4_linear_75_30" x1="103.92" y1="72.4087" x2="99.3326" y2="76.3587" gradientUnits="userSpaceOnUse">
<stop stop-color="#7AC8FF"/>
<stop offset="0.500395" stop-color="#547BED"/>
<stop offset="1" stop-color="#FF719D"/>
</linearGradient>
<linearGradient id="paint5_linear_75_30" x1="82.0597" y1="93.1921" x2="77.4717" y2="97.1419" gradientUnits="userSpaceOnUse">
<stop stop-color="#7AC8FF"/>
<stop offset="0.500395" stop-color="#547BED"/>
<stop offset="1" stop-color="#FF719D"/>
</linearGradient>
<linearGradient id="paint6_linear_75_30" x1="60.1857" y1="113.99" x2="55.5966" y2="117.942" gradientUnits="userSpaceOnUse">
<stop stop-color="#7AC8FF"/>
<stop offset="0.500395" stop-color="#547BED"/>
<stop offset="1" stop-color="#FF719D"/>
</linearGradient>
<linearGradient id="paint7_linear_75_30" x1="38.2971" y1="134.792" x2="33.7098" y2="138.742" gradientUnits="userSpaceOnUse">
<stop stop-color="#7AC8FF"/>
<stop offset="0.500395" stop-color="#547BED"/>
<stop offset="1" stop-color="#FF719D"/>
</linearGradient>
<linearGradient id="paint8_linear_75_30" x1="123.25" y1="71.7964" x2="118.663" y2="75.7461" gradientUnits="userSpaceOnUse">
<stop stop-color="#7AC8FF"/>
<stop offset="0.500395" stop-color="#547BED"/>
<stop offset="1" stop-color="#FF719D"/>
</linearGradient>
<linearGradient id="paint9_linear_75_30" x1="101.374" y1="92.6042" x2="96.7783" y2="96.5606" gradientUnits="userSpaceOnUse">
<stop stop-color="#7AC8FF"/>
<stop offset="0.500395" stop-color="#547BED"/>
<stop offset="1" stop-color="#FF719D"/>
</linearGradient>
<linearGradient id="paint10_linear_75_30" x1="79.4939" y1="113.399" x2="74.905" y2="117.351" gradientUnits="userSpaceOnUse">
<stop stop-color="#7AC8FF"/>
<stop offset="0.500395" stop-color="#547BED"/>
<stop offset="1" stop-color="#FF719D"/>
</linearGradient>
<linearGradient id="paint11_linear_75_30" x1="57.6223" y1="134.192" x2="53.0343" y2="138.142" gradientUnits="userSpaceOnUse">
<stop stop-color="#7AC8FF"/>
<stop offset="0.500395" stop-color="#547BED"/>
<stop offset="1" stop-color="#FF719D"/>
</linearGradient>
<linearGradient id="paint12_linear_75_30" x1="120.692" y1="92.0075" x2="116.105" y2="95.9571" gradientUnits="userSpaceOnUse">
<stop stop-color="#7AC8FF"/>
<stop offset="0.500395" stop-color="#547BED"/>
<stop offset="1" stop-color="#FF719D"/>
</linearGradient>
<linearGradient id="paint13_linear_75_30" x1="98.8263" y1="112.784" x2="94.2383" y2="116.734" gradientUnits="userSpaceOnUse">
<stop stop-color="#7AC8FF"/>
<stop offset="0.500395" stop-color="#547BED"/>
<stop offset="1" stop-color="#FF719D"/>
</linearGradient>
<linearGradient id="paint14_linear_75_30" x1="76.9375" y1="133.586" x2="72.3492" y2="137.536" gradientUnits="userSpaceOnUse">
<stop stop-color="#7AC8FF"/>
<stop offset="0.500395" stop-color="#547BED"/>
<stop offset="1" stop-color="#FF719D"/>
</linearGradient>
<linearGradient id="paint15_linear_75_30" x1="118.139" y1="112.2" x2="113.55" y2="116.152" gradientUnits="userSpaceOnUse">
<stop stop-color="#7AC8FF"/>
<stop offset="0.500395" stop-color="#547BED"/>
<stop offset="1" stop-color="#FF719D"/>
</linearGradient>
<linearGradient id="paint16_linear_75_30" x1="96.2714" y1="132.979" x2="91.6826" y2="136.93" gradientUnits="userSpaceOnUse">
<stop stop-color="#7AC8FF"/>
<stop offset="0.500395" stop-color="#547BED"/>
<stop offset="1" stop-color="#FF719D"/>
</linearGradient>
<linearGradient id="paint17_linear_75_30" x1="115.578" y1="132.381" x2="110.99" y2="136.331" gradientUnits="userSpaceOnUse">
<stop stop-color="#7AC8FF"/>
<stop offset="0.500395" stop-color="#547BED"/>
<stop offset="1" stop-color="#FF719D"/>
</linearGradient>
<linearGradient id="paint18_linear_75_30" x1="70.3879" y1="33.2276" x2="65.8012" y2="37.1774" gradientUnits="userSpaceOnUse">
<stop stop-color="#7AC8FF"/>
<stop offset="0.500395" stop-color="#547BED"/>
<stop offset="1" stop-color="#FF719D"/>
</linearGradient>
<linearGradient id="paint19_linear_75_30" x1="48.5145" y1="54.0143" x2="43.9312" y2="57.9605" gradientUnits="userSpaceOnUse">
<stop stop-color="#7AC8FF"/>
<stop offset="0.500395" stop-color="#547BED"/>
<stop offset="1" stop-color="#FF719D"/>
</linearGradient>
<linearGradient id="paint20_linear_75_30" x1="26.6386" y1="74.8134" x2="22.0513" y2="78.7632" gradientUnits="userSpaceOnUse">
<stop stop-color="#7AC8FF"/>
<stop offset="0.500395" stop-color="#547BED"/>
<stop offset="1" stop-color="#FF719D"/>
</linearGradient>
<linearGradient id="paint21_linear_75_30" x1="89.7137" y1="32.6275" x2="85.125" y2="36.5774" gradientUnits="userSpaceOnUse">
<stop stop-color="#7AC8FF"/>
<stop offset="0.500395" stop-color="#547BED"/>
<stop offset="1" stop-color="#FF719D"/>
</linearGradient>
<linearGradient id="paint22_linear_75_30" x1="67.8312" y1="53.4151" x2="63.2435" y2="57.3649" gradientUnits="userSpaceOnUse">
<stop stop-color="#7AC8FF"/>
<stop offset="0.500395" stop-color="#547BED"/>
<stop offset="1" stop-color="#FF719D"/>
</linearGradient>
<linearGradient id="paint23_linear_75_30" x1="45.9609" y1="74.2158" x2="41.3742" y2="78.1657" gradientUnits="userSpaceOnUse">
<stop stop-color="#7AC8FF"/>
<stop offset="0.500395" stop-color="#547BED"/>
<stop offset="1" stop-color="#FF719D"/>
</linearGradient>
<linearGradient id="paint24_linear_75_30" x1="24.0834" y1="95.0085" x2="19.4967" y2="98.9583" gradientUnits="userSpaceOnUse">
<stop stop-color="#7AC8FF"/>
<stop offset="0.500395" stop-color="#547BED"/>
<stop offset="1" stop-color="#FF719D"/>
</linearGradient>
<linearGradient id="paint25_linear_75_30" x1="109.039" y1="32.0113" x2="104.451" y2="35.961" gradientUnits="userSpaceOnUse">
<stop stop-color="#7AC8FF"/>
<stop offset="0.500395" stop-color="#547BED"/>
<stop offset="1" stop-color="#FF719D"/>
</linearGradient>
<linearGradient id="paint26_linear_75_30" x1="87.1651" y1="52.8072" x2="82.5776" y2="56.7569" gradientUnits="userSpaceOnUse">
<stop stop-color="#7AC8FF"/>
<stop offset="0.500395" stop-color="#547BED"/>
<stop offset="1" stop-color="#FF719D"/>
</linearGradient>
<linearGradient id="paint27_linear_75_30" x1="65.2934" y1="73.6004" x2="60.7027" y2="77.5523" gradientUnits="userSpaceOnUse">
<stop stop-color="#7AC8FF"/>
<stop offset="0.500395" stop-color="#547BED"/>
<stop offset="1" stop-color="#FF719D"/>
</linearGradient>
<linearGradient id="paint28_linear_75_30" x1="43.4085" y1="94.408" x2="38.8206" y2="98.3575" gradientUnits="userSpaceOnUse">
<stop stop-color="#7AC8FF"/>
<stop offset="0.500395" stop-color="#547BED"/>
<stop offset="1" stop-color="#FF719D"/>
</linearGradient>
<linearGradient id="paint29_linear_75_30" x1="21.546" y1="115.194" x2="16.958" y2="119.144" gradientUnits="userSpaceOnUse">
<stop stop-color="#7AC8FF"/>
<stop offset="0.500395" stop-color="#547BED"/>
<stop offset="1" stop-color="#FF719D"/>
</linearGradient>
<linearGradient id="paint30_linear_75_30" x1="128.352" y1="31.4252" x2="123.764" y2="35.3749" gradientUnits="userSpaceOnUse">
<stop stop-color="#7AC8FF"/>
<stop offset="0.500395" stop-color="#547BED"/>
<stop offset="1" stop-color="#FF719D"/>
</linearGradient>
<linearGradient id="paint31_linear_75_30" x1="106.475" y1="52.2142" x2="101.885" y2="56.1662" gradientUnits="userSpaceOnUse">
<stop stop-color="#7AC8FF"/>
<stop offset="0.500395" stop-color="#547BED"/>
<stop offset="1" stop-color="#FF719D"/>
</linearGradient>
<linearGradient id="paint32_linear_75_30" x1="84.6126" y1="73.0004" x2="80.0249" y2="76.9505" gradientUnits="userSpaceOnUse">
<stop stop-color="#7AC8FF"/>
<stop offset="0.500395" stop-color="#547BED"/>
<stop offset="1" stop-color="#FF719D"/>
</linearGradient>
</defs>
</svg>
