<svg width="135" height="121" viewBox="0 0 135 121" fill="none" xmlns="http://www.w3.org/2000/svg">
<path d="M70.169 5.76214C68.696 7.0815 66.3136 7.0815 64.8406 5.76214C63.3676 4.44279 63.3676 2.30887 64.8406 0.989516C66.3136 -0.329839 68.696 -0.329839 70.169 0.989516C71.642 2.30887 71.642 4.44279 70.169 5.76214ZM86.103 15.2615C84.63 13.9421 82.2476 13.9421 80.7746 15.2615C79.3016 16.5809 79.3016 18.7148 80.7746 20.0341C82.2476 21.3535 84.63 21.3535 86.103 20.0341C87.576 18.7148 87.576 16.5809 86.103 15.2615ZM102.037 29.5335C100.564 28.2141 98.1815 28.2141 96.7085 29.5335C95.2355 30.8528 95.2355 32.9867 96.7085 34.3061C98.1815 35.6255 100.564 35.6255 102.037 34.3061C103.51 32.9867 103.51 30.8528 102.037 29.5335ZM117.971 43.8055C116.498 42.4861 114.115 42.4861 112.642 43.8055C111.17 45.1248 111.17 47.2587 112.642 48.5781C114.115 49.8974 116.498 49.8974 117.971 48.5781C119.444 47.2587 119.444 45.1248 117.971 43.8055ZM133.905 58.0774C132.432 56.7581 130.049 56.7581 128.576 58.0774C127.103 59.3968 127.103 61.5307 128.576 62.8501C130.049 64.1694 132.432 64.1694 133.905 62.8501C135.365 61.5307 135.365 59.3968 133.905 58.0774ZM54.235 15.2615C52.762 13.9421 50.3796 13.9421 48.9066 15.2615C47.4336 16.5809 47.4336 18.7148 48.9066 20.0341C50.3796 21.3535 52.762 21.3535 54.235 20.0341C55.708 18.7148 55.708 16.5809 54.235 15.2615ZM70.169 29.5335C68.696 28.2141 66.3136 28.2141 64.8406 29.5335C63.3676 30.8528 63.3676 32.9867 64.8406 34.3061C66.3136 35.6255 68.696 35.6255 70.169 34.3061C71.642 32.9867 71.642 30.8528 70.169 29.5335ZM86.103 43.8055C84.63 42.4861 82.2476 42.4861 80.7746 43.8055C79.3016 45.1248 79.3016 47.2587 80.7746 48.5781C82.2476 49.8974 84.63 49.8974 86.103 48.5781C87.576 47.2587 87.576 45.1248 86.103 43.8055ZM102.037 58.0774C100.564 56.7581 98.1815 56.7581 96.7085 58.0774C95.2355 59.3968 95.2355 61.5307 96.7085 62.8501C98.1815 64.1694 100.564 64.1694 102.037 62.8501C103.51 61.5307 103.51 59.3968 102.037 58.0774ZM117.971 72.3494C116.498 71.0301 114.115 71.0301 112.642 72.3494C111.17 73.6688 111.17 75.8027 112.642 77.122C114.115 78.4414 116.498 78.4414 117.971 77.122C119.444 75.8027 119.444 73.6688 117.971 72.3494ZM38.3011 29.5335C36.8281 28.2141 34.4457 28.2141 32.9727 29.5335C31.4997 30.8528 31.4997 32.9867 32.9727 34.3061C34.4457 35.6255 36.8281 35.6255 38.3011 34.3061C39.7741 32.9867 39.7741 30.8528 38.3011 29.5335ZM54.235 43.8055C52.762 42.4861 50.3796 42.4861 48.9066 43.8055C47.4336 45.1248 47.4336 47.2587 48.9066 48.5781C50.3796 49.8974 52.762 49.8974 54.235 48.5781C55.708 47.2587 55.708 45.1248 54.235 43.8055ZM70.169 58.0774C68.696 56.7581 66.3136 56.7581 64.8406 58.0774C63.3676 59.3968 63.3676 61.5307 64.8406 62.8501C66.3136 64.1694 68.696 64.1694 70.169 62.8501C71.642 61.5307 71.642 59.3968 70.169 58.0774ZM86.103 72.3494C84.63 71.0301 82.2476 71.0301 80.7746 72.3494C79.3016 73.6688 79.3016 75.8027 80.7746 77.122C82.2476 78.4414 84.63 78.4414 86.103 77.122C87.576 75.8027 87.576 73.6688 86.103 72.3494ZM102.037 86.6214C100.564 85.302 98.1815 85.302 96.7085 86.6214C95.2355 87.9408 95.2355 90.0747 96.7085 91.394C98.1815 92.7134 100.564 92.7134 102.037 91.394C103.51 90.0747 103.51 87.9293 102.037 86.6214ZM22.3671 43.8055C20.8941 42.4861 18.5117 42.4861 17.0387 43.8055C15.5657 45.1248 15.5657 47.2587 17.0387 48.5781C18.5117 49.8974 20.8941 49.8974 22.3671 48.5781C23.8401 47.2587 23.8401 45.1248 22.3671 43.8055ZM38.3011 58.0774C36.8281 56.7581 34.4457 56.7581 32.9727 58.0774C31.4997 59.3968 31.4997 61.5307 32.9727 62.8501C34.4457 64.1694 36.8281 64.1694 38.3011 62.8501C39.7741 61.5307 39.7741 59.3968 38.3011 58.0774ZM54.235 72.3494C52.762 71.0301 50.3796 71.0301 48.9066 72.3494C47.4336 73.6688 47.4336 75.8027 48.9066 77.122C50.3796 78.4414 52.762 78.4414 54.235 77.122C55.708 75.8027 55.708 73.6688 54.235 72.3494ZM70.169 86.6214C68.696 85.302 66.3136 85.302 64.8406 86.6214C63.3676 87.9408 63.3676 90.0747 64.8406 91.394C66.3136 92.7134 68.696 92.7134 70.169 91.394C71.642 90.0747 71.642 87.9293 70.169 86.6214ZM86.103 100.893C84.63 99.574 82.2476 99.574 80.7746 100.893C79.3016 102.213 79.3016 104.347 80.7746 105.666C82.2476 106.985 84.63 106.985 86.103 105.666C87.576 104.347 87.576 102.201 86.103 100.893ZM6.43314 58.0774C4.96015 56.7581 2.57774 56.7581 1.10475 58.0774C-0.368249 59.3968 -0.368249 61.5307 1.10475 62.8501C2.57774 64.1694 4.96015 64.1694 6.43314 62.8501C7.90614 61.5307 7.90614 59.3968 6.43314 58.0774ZM22.3671 72.3494C20.8941 71.0301 18.5117 71.0301 17.0387 72.3494C15.5657 73.6688 15.5657 75.8027 17.0387 77.122C18.5117 78.4414 20.8941 78.4414 22.3671 77.122C23.8401 75.8027 23.8401 73.6688 22.3671 72.3494ZM38.3011 86.6214C36.8281 85.302 34.4457 85.302 32.9727 86.6214C31.4997 87.9408 31.4997 90.0747 32.9727 91.394C34.4457 92.7134 36.8281 92.7134 38.3011 91.394C39.7741 90.0747 39.7741 87.9293 38.3011 86.6214ZM54.235 100.893C52.762 99.574 50.3796 99.574 48.9066 100.893C47.4336 102.213 47.4336 104.347 48.9066 105.666C50.3796 106.985 52.762 106.985 54.235 105.666C55.708 104.347 55.708 102.201 54.235 100.893ZM70.169 115.154C68.696 113.835 66.3136 113.835 64.8406 115.154C63.3676 116.473 63.3676 118.607 64.8406 119.927C66.3136 121.246 68.696 121.246 70.169 119.927C71.642 118.619 71.642 116.473 70.169 115.154Z" fill="#244579" fill-opacity="0.4"/>
</svg>
