<svg width="242" height="393" viewBox="0 0 242 393" fill="none" xmlns="http://www.w3.org/2000/svg">
<path d="M143.735 267.398C141.034 267.398 139.08 269.352 139.08 272.03C139.08 274.731 141.034 276.685 143.711 276.685C146.413 276.685 148.342 274.731 148.367 272.054C148.367 269.352 146.437 267.398 143.735 267.398Z" fill="url(#paint0_linear_75_874)"/>
<path d="M190.189 62.286C187.487 62.2427 185.461 63.9495 185.413 66.3477C185.365 68.7675 187.294 70.5823 189.947 70.6255C192.649 70.6688 194.651 68.9619 194.699 66.5638C194.771 64.1224 192.866 62.3292 190.189 62.286Z" fill="url(#paint1_linear_75_874)"/>
<path d="M236.478 62.2858C233.777 62.2642 231.799 64.0142 231.775 66.4124C231.751 68.8321 233.704 70.6037 236.382 70.6253C239.083 70.6469 241.037 68.9185 241.061 66.4988C241.085 64.0574 239.18 62.3074 236.478 62.2858Z" fill="url(#paint2_linear_75_874)"/>
<path d="M27.8079 299.889C30.5094 299.889 32.4631 297.96 32.4631 295.258C32.4631 292.557 30.5335 290.603 27.832 290.603C25.1305 290.603 23.1767 292.557 23.1767 295.234C23.1526 297.912 25.1305 299.865 27.8079 299.889Z" fill="url(#paint3_linear_75_874)"/>
<path d="M74.099 299.889C76.8004 299.913 78.7783 298.007 78.8266 295.306C78.8507 292.58 76.9452 290.602 74.2678 290.578C71.5663 290.554 69.5643 292.46 69.5402 295.137C69.4919 297.839 71.4457 299.841 74.099 299.889Z" fill="url(#paint4_linear_75_874)"/>
<path d="M120.48 290.578C117.802 290.602 115.849 292.58 115.873 295.282C115.897 297.959 117.899 299.913 120.576 299.889C123.278 299.865 125.183 297.887 125.159 295.185C125.159 292.484 123.181 290.554 120.48 290.578Z" fill="url(#paint5_linear_75_874)"/>
<path d="M167.086 83.0477C164.384 82.9829 162.334 84.668 162.237 87.0445C162.165 89.4642 164.046 91.3006 166.7 91.387C169.401 91.4518 171.451 89.7667 171.524 87.3902C171.62 84.9273 169.763 83.1125 167.086 83.0477Z" fill="url(#paint6_linear_75_874)"/>
<path d="M213.347 83.0471C210.646 83.0255 208.644 84.7538 208.62 87.1303C208.596 89.5499 210.525 91.3431 213.203 91.3647C215.904 91.3863 217.882 89.6579 217.906 87.2599C217.93 84.8402 216.025 83.0687 213.347 83.0471Z" fill="url(#paint7_linear_75_874)"/>
<path d="M51.0175 323.069C53.719 323.045 55.6486 321.091 55.6245 318.389C55.6245 315.688 53.6708 313.758 50.9693 313.758C48.2678 313.758 46.3381 315.736 46.3381 318.438C46.3623 321.115 48.3401 323.069 51.0175 323.069Z" fill="url(#paint8_linear_75_874)"/>
<path d="M92.7221 318.076C92.5774 320.802 94.4105 322.9 97.0397 323.069C99.7412 323.214 101.864 321.381 102.008 318.752C102.153 316.026 100.344 313.927 97.7151 313.783C94.9653 313.614 92.8668 315.447 92.7221 318.076Z" fill="url(#paint9_linear_75_874)"/>
<path d="M143.906 313.758C141.205 313.686 139.155 315.543 139.082 318.221C139.01 320.922 140.891 322.972 143.545 323.069C146.246 323.141 148.296 321.26 148.369 318.607C148.441 315.857 146.584 313.831 143.906 313.758Z" fill="url(#paint10_linear_75_874)"/>
<path d="M189.996 103.809C187.319 103.831 185.389 105.624 185.437 108.044C185.461 110.442 187.463 112.171 190.165 112.149C192.842 112.106 194.748 110.334 194.724 107.914C194.675 105.495 192.698 103.788 189.996 103.809Z" fill="url(#paint11_linear_75_874)"/>
<path d="M74.1704 346.249C76.8719 346.249 78.8016 344.319 78.8257 341.618C78.8257 338.916 76.8961 336.962 74.1946 336.962C71.4931 336.962 69.5393 338.916 69.5393 341.594C69.5393 344.271 71.4931 346.249 74.1704 346.249Z" fill="url(#paint12_linear_75_874)"/>
<path d="M120.432 336.938C117.755 336.987 115.825 338.989 115.873 341.69C115.922 344.368 117.924 346.297 120.625 346.249C123.303 346.201 125.208 344.223 125.16 341.497C125.136 338.796 123.158 336.89 120.432 336.938Z" fill="url(#paint13_linear_75_874)"/>
<path d="M166.985 124.571C164.283 124.55 162.281 126.278 162.257 128.655C162.233 131.074 164.162 132.867 166.84 132.889C169.541 132.911 171.519 131.204 171.543 128.784C171.567 126.365 169.662 124.593 166.985 124.571Z" fill="url(#paint14_linear_75_874)"/>
<path d="M97.1832 369.429C99.8847 369.501 101.935 367.62 102.007 364.966C102.08 362.241 100.222 360.215 97.5691 360.142C94.8676 360.07 92.8174 361.951 92.7209 364.604C92.6244 367.282 94.5299 369.332 97.1832 369.429Z" fill="url(#paint15_linear_75_874)"/>
<path d="M143.832 360.118C141.131 360.07 139.105 361.975 139.056 364.653C139.008 367.354 140.938 369.38 143.591 369.429C146.293 369.477 148.295 367.571 148.343 364.894C148.415 362.168 146.51 360.166 143.832 360.118Z" fill="url(#paint16_linear_75_874)"/>
<path d="M120.457 383.298C117.779 383.346 115.85 385.324 115.898 388.025C115.946 390.703 117.948 392.632 120.626 392.584C123.303 392.536 125.208 390.558 125.184 387.857C125.136 385.179 123.158 383.25 120.457 383.298Z" fill="url(#paint17_linear_75_874)"/>
<path d="M74.1948 207.17C76.8963 207.17 78.8259 205.216 78.8259 202.491C78.8259 199.789 76.8722 197.859 74.1707 197.859C71.4692 197.859 69.5154 199.837 69.5395 202.515C69.5395 205.216 71.5174 207.17 74.1948 207.17Z" fill="url(#paint18_linear_75_874)"/>
<path d="M125.161 202.828C125.306 200.103 123.497 198.004 120.867 197.86C118.142 197.715 116.043 199.548 115.899 202.177C115.754 204.879 117.587 207.001 120.216 207.146C122.918 207.315 125.04 205.458 125.161 202.828Z" fill="url(#paint19_linear_75_874)"/>
<path d="M166.985 0.000200301C164.283 -0.0214041 162.281 1.70695 162.257 4.08344C162.233 6.50314 164.162 8.29631 166.84 8.31791C169.541 8.33952 171.519 6.63277 171.543 4.21307C171.567 1.79337 169.662 0.0434092 166.985 0.000200301Z" fill="url(#paint20_linear_75_874)"/>
<path d="M51.0847 230.35C53.7621 230.302 55.6676 228.324 55.6435 225.623C55.6193 222.945 53.6415 221.016 50.9159 221.064C48.2385 221.112 46.3088 223.09 46.3571 225.791C46.3812 228.445 48.3832 230.374 51.0847 230.35Z" fill="url(#paint21_linear_75_874)"/>
<path d="M97.4452 221.039C94.7438 221.015 92.7659 222.921 92.7176 225.598C92.6935 228.3 94.599 230.302 97.2764 230.326C99.9779 230.35 101.956 228.444 102.004 225.743C102.028 223.065 100.123 221.088 97.4452 221.039Z" fill="url(#paint22_linear_75_874)"/>
<path d="M143.76 221.039C141.058 221.015 139.08 222.945 139.08 225.646C139.056 228.348 141.01 230.326 143.687 230.35C146.389 230.374 148.343 228.42 148.367 225.743C148.367 223.017 146.461 221.063 143.76 221.039Z" fill="url(#paint23_linear_75_874)"/>
<path d="M190.071 20.7622C187.369 20.7622 185.44 22.5122 185.44 24.9318C185.44 27.3515 187.418 29.1015 190.095 29.0799C192.796 29.0799 194.726 27.3299 194.726 24.8886C194.702 22.4906 192.772 20.7622 190.071 20.7622Z" fill="url(#paint24_linear_75_874)"/>
<path d="M27.7622 253.529C30.4637 253.554 32.4174 251.624 32.4415 248.922C32.4657 246.221 30.536 244.243 27.8587 244.219C25.1572 244.195 23.1793 246.149 23.1552 248.826C23.1552 251.503 25.1089 253.505 27.7622 253.529Z" fill="url(#paint25_linear_75_874)"/>
<path d="M74.1217 253.529C76.8232 253.554 78.7769 251.624 78.801 248.922C78.8252 246.221 76.8955 244.243 74.2181 244.219C71.5167 244.195 69.5388 246.149 69.5146 248.826C69.5146 251.503 71.4684 253.505 74.1217 253.529Z" fill="url(#paint26_linear_75_874)"/>
<path d="M120.723 244.219C118.021 244.146 115.971 246.028 115.875 248.681C115.802 251.383 117.684 253.433 120.337 253.529C123.038 253.626 125.089 251.72 125.161 249.067C125.257 246.317 123.4 244.315 120.723 244.219Z" fill="url(#paint27_linear_75_874)"/>
<path d="M166.912 41.5244C164.21 41.5244 162.257 43.2744 162.257 45.6725C162.257 48.0922 164.21 49.8422 166.888 49.8638C169.589 49.8638 171.543 48.1354 171.543 45.7157C171.543 43.2744 169.613 41.5244 166.912 41.5244Z" fill="url(#paint28_linear_75_874)"/>
<path d="M213.299 41.5236C210.597 41.502 208.619 43.252 208.595 45.6501C208.571 48.0698 210.525 49.8414 213.202 49.863C215.904 49.8846 217.857 48.1346 217.881 45.7365C217.906 43.2952 216 41.5452 213.299 41.5236Z" fill="url(#paint29_linear_75_874)"/>
<path d="M4.60723 276.709C7.30873 276.734 9.26248 274.78 9.2866 272.102C9.31072 269.401 7.38109 267.423 4.70371 267.423C2.00222 267.399 0.0243414 269.353 0.000220899 272.03C-0.0238996 274.683 1.92986 276.685 4.60723 276.709Z" fill="url(#paint30_linear_75_874)"/>
<path d="M50.822 276.709C53.5235 276.806 55.5737 274.9 55.6461 272.247C55.7185 269.522 53.8612 267.495 51.2079 267.399C48.5064 267.327 46.4562 269.208 46.3597 271.861C46.2632 274.563 48.1687 276.613 50.822 276.709Z" fill="url(#paint31_linear_75_874)"/>
<path d="M97.4223 267.399C94.7208 267.375 92.7188 269.304 92.6947 271.982C92.6706 274.683 94.6002 276.685 97.2776 276.709C99.9791 276.733 101.957 274.804 101.981 272.126C102.029 269.401 100.124 267.423 97.4223 267.399Z" fill="url(#paint32_linear_75_874)"/>
<defs>
<linearGradient id="paint0_linear_75_874" x1="139.08" y1="271.406" x2="148.367" y2="271.43" gradientUnits="userSpaceOnUse">
<stop stop-color="#7AC8FF"/>
<stop offset="0.500395" stop-color="#547BED"/>
<stop offset="1" stop-color="#FF719D"/>
</linearGradient>
<linearGradient id="paint1_linear_75_874" x1="185.412" y1="65.8844" x2="194.701" y2="65.912" gradientUnits="userSpaceOnUse">
<stop stop-color="#7AC8FF"/>
<stop offset="0.500395" stop-color="#547BED"/>
<stop offset="1" stop-color="#FF719D"/>
</linearGradient>
<linearGradient id="paint2_linear_75_874" x1="231.775" y1="65.8843" x2="241.061" y2="65.9119" gradientUnits="userSpaceOnUse">
<stop stop-color="#7AC8FF"/>
<stop offset="0.500395" stop-color="#547BED"/>
<stop offset="1" stop-color="#FF719D"/>
</linearGradient>
<linearGradient id="paint3_linear_75_874" x1="23.1765" y1="294.61" x2="32.4632" y2="294.635" gradientUnits="userSpaceOnUse">
<stop stop-color="#7AC8FF"/>
<stop offset="0.500395" stop-color="#547BED"/>
<stop offset="1" stop-color="#FF719D"/>
</linearGradient>
<linearGradient id="paint4_linear_75_874" x1="69.5393" y1="294.596" x2="78.8269" y2="294.621" gradientUnits="userSpaceOnUse">
<stop stop-color="#7AC8FF"/>
<stop offset="0.500395" stop-color="#547BED"/>
<stop offset="1" stop-color="#FF719D"/>
</linearGradient>
<linearGradient id="paint5_linear_75_874" x1="115.873" y1="294.596" x2="125.159" y2="294.621" gradientUnits="userSpaceOnUse">
<stop stop-color="#7AC8FF"/>
<stop offset="0.500395" stop-color="#547BED"/>
<stop offset="1" stop-color="#FF719D"/>
</linearGradient>
<linearGradient id="paint6_linear_75_874" x1="162.235" y1="86.6459" x2="171.527" y2="86.6735" gradientUnits="userSpaceOnUse">
<stop stop-color="#7AC8FF"/>
<stop offset="0.500395" stop-color="#547BED"/>
<stop offset="1" stop-color="#FF719D"/>
</linearGradient>
<linearGradient id="paint7_linear_75_874" x1="208.62" y1="86.6361" x2="217.906" y2="86.6638" gradientUnits="userSpaceOnUse">
<stop stop-color="#7AC8FF"/>
<stop offset="0.500395" stop-color="#547BED"/>
<stop offset="1" stop-color="#FF719D"/>
</linearGradient>
<linearGradient id="paint8_linear_75_874" x1="46.3381" y1="317.776" x2="55.6248" y2="317.801" gradientUnits="userSpaceOnUse">
<stop stop-color="#7AC8FF"/>
<stop offset="0.500395" stop-color="#547BED"/>
<stop offset="1" stop-color="#FF719D"/>
</linearGradient>
<linearGradient id="paint9_linear_75_874" x1="92.7141" y1="317.787" x2="102.017" y2="317.812" gradientUnits="userSpaceOnUse">
<stop stop-color="#7AC8FF"/>
<stop offset="0.500395" stop-color="#547BED"/>
<stop offset="1" stop-color="#FF719D"/>
</linearGradient>
<linearGradient id="paint10_linear_75_874" x1="139.08" y1="317.776" x2="148.371" y2="317.8" gradientUnits="userSpaceOnUse">
<stop stop-color="#7AC8FF"/>
<stop offset="0.500395" stop-color="#547BED"/>
<stop offset="1" stop-color="#FF719D"/>
</linearGradient>
<linearGradient id="paint11_linear_75_874" x1="185.436" y1="107.408" x2="194.724" y2="107.435" gradientUnits="userSpaceOnUse">
<stop stop-color="#7AC8FF"/>
<stop offset="0.500395" stop-color="#547BED"/>
<stop offset="1" stop-color="#FF719D"/>
</linearGradient>
<linearGradient id="paint12_linear_75_874" x1="69.5393" y1="340.97" x2="78.8258" y2="340.994" gradientUnits="userSpaceOnUse">
<stop stop-color="#7AC8FF"/>
<stop offset="0.500395" stop-color="#547BED"/>
<stop offset="1" stop-color="#FF719D"/>
</linearGradient>
<linearGradient id="paint13_linear_75_874" x1="115.873" y1="340.956" x2="125.161" y2="340.981" gradientUnits="userSpaceOnUse">
<stop stop-color="#7AC8FF"/>
<stop offset="0.500395" stop-color="#547BED"/>
<stop offset="1" stop-color="#FF719D"/>
</linearGradient>
<linearGradient id="paint14_linear_75_874" x1="162.257" y1="128.161" x2="171.544" y2="128.188" gradientUnits="userSpaceOnUse">
<stop stop-color="#7AC8FF"/>
<stop offset="0.500395" stop-color="#547BED"/>
<stop offset="1" stop-color="#FF719D"/>
</linearGradient>
<linearGradient id="paint15_linear_75_874" x1="92.7174" y1="364.149" x2="102.009" y2="364.174" gradientUnits="userSpaceOnUse">
<stop stop-color="#7AC8FF"/>
<stop offset="0.500395" stop-color="#547BED"/>
<stop offset="1" stop-color="#FF719D"/>
</linearGradient>
<linearGradient id="paint16_linear_75_874" x1="139.056" y1="364.136" x2="148.345" y2="364.16" gradientUnits="userSpaceOnUse">
<stop stop-color="#7AC8FF"/>
<stop offset="0.500395" stop-color="#547BED"/>
<stop offset="1" stop-color="#FF719D"/>
</linearGradient>
<linearGradient id="paint17_linear_75_874" x1="115.897" y1="387.305" x2="125.185" y2="387.33" gradientUnits="userSpaceOnUse">
<stop stop-color="#7AC8FF"/>
<stop offset="0.500395" stop-color="#547BED"/>
<stop offset="1" stop-color="#FF719D"/>
</linearGradient>
<linearGradient id="paint18_linear_75_874" x1="69.5393" y1="201.877" x2="78.826" y2="201.902" gradientUnits="userSpaceOnUse">
<stop stop-color="#7AC8FF"/>
<stop offset="0.500395" stop-color="#547BED"/>
<stop offset="1" stop-color="#FF719D"/>
</linearGradient>
<linearGradient id="paint19_linear_75_874" x1="115.891" y1="201.867" x2="125.169" y2="201.891" gradientUnits="userSpaceOnUse">
<stop stop-color="#7AC8FF"/>
<stop offset="0.500395" stop-color="#547BED"/>
<stop offset="1" stop-color="#FF719D"/>
</linearGradient>
<linearGradient id="paint20_linear_75_874" x1="162.257" y1="3.58932" x2="171.544" y2="3.61697" gradientUnits="userSpaceOnUse">
<stop stop-color="#7AC8FF"/>
<stop offset="0.500395" stop-color="#547BED"/>
<stop offset="1" stop-color="#FF719D"/>
</linearGradient>
<linearGradient id="paint21_linear_75_874" x1="46.3562" y1="225.071" x2="55.6438" y2="225.095" gradientUnits="userSpaceOnUse">
<stop stop-color="#7AC8FF"/>
<stop offset="0.500395" stop-color="#547BED"/>
<stop offset="1" stop-color="#FF719D"/>
</linearGradient>
<linearGradient id="paint22_linear_75_874" x1="92.7174" y1="225.046" x2="102.004" y2="225.071" gradientUnits="userSpaceOnUse">
<stop stop-color="#7AC8FF"/>
<stop offset="0.500395" stop-color="#547BED"/>
<stop offset="1" stop-color="#FF719D"/>
</linearGradient>
<linearGradient id="paint23_linear_75_874" x1="139.08" y1="225.057" x2="148.367" y2="225.081" gradientUnits="userSpaceOnUse">
<stop stop-color="#7AC8FF"/>
<stop offset="0.500395" stop-color="#547BED"/>
<stop offset="1" stop-color="#FF719D"/>
</linearGradient>
<linearGradient id="paint24_linear_75_874" x1="185.44" y1="24.3514" x2="194.726" y2="24.3791" gradientUnits="userSpaceOnUse">
<stop stop-color="#7AC8FF"/>
<stop offset="0.500395" stop-color="#547BED"/>
<stop offset="1" stop-color="#FF719D"/>
</linearGradient>
<linearGradient id="paint25_linear_75_874" x1="23.1552" y1="248.236" x2="32.4419" y2="248.261" gradientUnits="userSpaceOnUse">
<stop stop-color="#7AC8FF"/>
<stop offset="0.500395" stop-color="#547BED"/>
<stop offset="1" stop-color="#FF719D"/>
</linearGradient>
<linearGradient id="paint26_linear_75_874" x1="69.5146" y1="248.236" x2="78.8014" y2="248.261" gradientUnits="userSpaceOnUse">
<stop stop-color="#7AC8FF"/>
<stop offset="0.500395" stop-color="#547BED"/>
<stop offset="1" stop-color="#FF719D"/>
</linearGradient>
<linearGradient id="paint27_linear_75_874" x1="115.873" y1="248.237" x2="125.165" y2="248.261" gradientUnits="userSpaceOnUse">
<stop stop-color="#7AC8FF"/>
<stop offset="0.500395" stop-color="#547BED"/>
<stop offset="1" stop-color="#FF719D"/>
</linearGradient>
<linearGradient id="paint28_linear_75_874" x1="162.257" y1="45.1229" x2="171.543" y2="45.1505" gradientUnits="userSpaceOnUse">
<stop stop-color="#7AC8FF"/>
<stop offset="0.500395" stop-color="#547BED"/>
<stop offset="1" stop-color="#FF719D"/>
</linearGradient>
<linearGradient id="paint29_linear_75_874" x1="208.595" y1="45.1221" x2="217.882" y2="45.1497" gradientUnits="userSpaceOnUse">
<stop stop-color="#7AC8FF"/>
<stop offset="0.500395" stop-color="#547BED"/>
<stop offset="1" stop-color="#FF719D"/>
</linearGradient>
<linearGradient id="paint30_linear_75_874" x1="-3.98888e-08" y1="271.43" x2="9.28693" y2="271.455" gradientUnits="userSpaceOnUse">
<stop stop-color="#7AC8FF"/>
<stop offset="0.500395" stop-color="#547BED"/>
<stop offset="1" stop-color="#FF719D"/>
</linearGradient>
<linearGradient id="paint31_linear_75_874" x1="46.3562" y1="271.417" x2="55.6482" y2="271.442" gradientUnits="userSpaceOnUse">
<stop stop-color="#7AC8FF"/>
<stop offset="0.500395" stop-color="#547BED"/>
<stop offset="1" stop-color="#FF719D"/>
</linearGradient>
<linearGradient id="paint32_linear_75_874" x1="92.6945" y1="271.416" x2="101.982" y2="271.441" gradientUnits="userSpaceOnUse">
<stop stop-color="#7AC8FF"/>
<stop offset="0.500395" stop-color="#547BED"/>
<stop offset="1" stop-color="#FF719D"/>
</linearGradient>
</defs>
</svg>
