<svg width="125" height="154" viewBox="0 0 125 154" fill="none" xmlns="http://www.w3.org/2000/svg">
<path d="M44.3501 61.9998C44.3543 63.7166 45.5986 64.9558 47.2996 64.9524C49.0158 64.949 50.254 63.7048 50.2498 62.0033C50.2455 60.2865 49.0012 59.0626 47.3003 59.0507C45.584 59.0541 44.3458 60.2829 44.3501 61.9998Z" fill="url(#paint0_linear_75_908)"/>
<path d="M44.2845 32.4828C44.2582 34.1996 45.4719 35.4847 47.1728 35.512C48.889 35.5392 50.1731 34.3104 50.1995 32.6243C50.2259 30.9074 49.0123 29.6376 47.3114 29.6103C45.5797 29.5678 44.311 30.7813 44.2845 32.4828Z" fill="url(#paint1_linear_75_908)"/>
<path d="M44.219 3.07112C44.208 4.78794 45.4523 6.04239 47.1531 6.05433C48.8693 6.06623 50.1227 4.82213 50.1338 3.12065C50.1449 1.40383 48.916 0.164668 47.1998 0.152762C45.4682 0.140886 44.2301 1.35431 44.219 3.07112Z" fill="url(#paint2_linear_75_908)"/>
<path d="M65.1575 135.614C65.1532 133.897 63.9242 132.658 62.208 132.661C60.4917 132.664 59.2535 133.893 59.2578 135.61C59.2621 137.327 60.5064 138.566 62.2073 138.563C63.9083 138.575 65.1464 137.315 65.1575 135.614Z" fill="url(#paint3_linear_75_908)"/>
<path d="M65.0917 106.201C65.1027 104.484 63.8891 103.23 62.1729 103.203C60.4413 103.191 59.1879 104.404 59.1768 106.106C59.1657 107.822 60.3794 109.092 62.0803 109.104C63.7965 109.132 65.0652 107.887 65.0917 106.201Z" fill="url(#paint4_linear_75_908)"/>
<path d="M59.1113 76.7428C59.1308 78.4442 60.3904 79.6833 62.1065 79.6646C63.8073 79.6458 65.0453 78.3711 65.0258 76.6697C65.0062 74.9529 63.7467 73.7445 62.0306 73.7632C60.3144 73.7667 59.0917 75.026 59.1113 76.7428Z" fill="url(#paint5_linear_75_908)"/>
<path d="M59.0454 47.1305C59.0037 48.8473 60.2021 50.1478 61.8878 50.2057C63.6041 50.2483 64.9035 49.0501 64.9606 47.364C65.0023 45.6472 63.8039 44.3468 62.1183 44.3041C60.3713 44.2463 59.0871 45.4291 59.0454 47.1305Z" fill="url(#paint6_linear_75_908)"/>
<path d="M58.98 17.7355C58.9689 19.4523 60.1979 20.7221 61.8835 20.7341C63.5997 20.746 64.8684 19.5172 64.8795 17.8157C64.8906 16.0989 63.6616 14.8444 61.9608 14.8324C60.2446 14.8205 58.9911 16.034 58.98 17.7355Z" fill="url(#paint7_linear_75_908)"/>
<path d="M79.8526 120.835C79.833 119.118 78.5888 117.894 76.8727 117.913C75.1565 117.917 73.9337 119.161 73.938 120.877C73.9423 122.594 75.2018 123.818 76.918 123.814C78.6188 123.795 79.8568 122.536 79.8526 120.835Z" fill="url(#paint8_linear_75_908)"/>
<path d="M76.6227 94.3427C78.3544 94.4313 79.6846 93.2637 79.7878 91.5927C79.8754 89.8758 78.7075 88.5292 77.0371 88.4406C75.3054 88.3521 73.9752 89.5043 73.8874 91.1753C73.7845 92.9229 74.9523 94.2541 76.6227 94.3427Z" fill="url(#paint9_linear_75_908)"/>
<path d="M73.8069 61.8255C73.7652 63.5423 74.9483 64.8428 76.6493 64.8854C78.3655 64.928 79.665 63.7298 79.7221 62.0437C79.7638 60.3269 78.5654 59.0264 76.8798 58.9838C75.1329 58.9413 73.8487 60.1241 73.8069 61.8255Z" fill="url(#paint10_linear_75_908)"/>
<path d="M73.7417 32.5401C73.7613 34.2415 75.0361 35.4653 76.7522 35.4312C78.453 35.4125 79.6757 34.1378 79.6561 32.421C79.6212 30.7196 78.3617 29.5111 76.6456 29.5299C74.9295 29.5639 73.7221 30.8233 73.7417 32.5401Z" fill="url(#paint11_linear_75_908)"/>
<path d="M94.5488 106.09C94.5446 104.373 93.3156 103.15 91.5993 103.138C89.8831 103.141 88.6449 104.37 88.6491 106.087C88.6534 107.804 89.8977 109.043 91.5987 109.039C93.2996 109.036 94.5531 107.792 94.5488 106.09Z" fill="url(#paint12_linear_75_908)"/>
<path d="M88.5683 76.7076C88.6032 78.409 89.8781 79.6327 91.5943 79.5986C93.2952 79.5646 94.5179 78.2899 94.483 76.5732C94.4481 74.8718 93.1886 73.6633 91.4571 73.6974C89.7408 73.7162 88.5334 74.9755 88.5683 76.7076Z" fill="url(#paint13_linear_75_908)"/>
<path d="M88.5027 47.1278C88.4916 48.8445 89.7206 50.1142 91.4062 50.1262C93.1224 50.1381 94.3911 48.9094 94.4022 47.208C94.4133 45.4913 93.1997 44.2369 91.4835 44.225C89.7673 44.2131 88.5138 45.4264 88.5027 47.1278Z" fill="url(#paint14_linear_75_908)"/>
<path d="M109.245 91.4351C109.286 89.7182 108.088 88.4177 106.402 88.375C104.671 88.3325 103.386 89.5154 103.344 91.2016C103.303 92.9185 104.501 94.2191 106.187 94.277C107.888 94.335 109.188 93.1214 109.245 91.4351Z" fill="url(#paint15_linear_75_908)"/>
<path d="M103.264 61.8065C103.237 63.5233 104.451 64.8085 106.152 64.8357C107.868 64.863 109.152 63.6341 109.179 61.948C109.205 60.2312 107.992 58.9613 106.291 58.9341C104.559 58.8915 103.29 60.105 103.264 61.8065Z" fill="url(#paint16_linear_75_908)"/>
<path d="M118.025 76.627C118.06 78.3284 119.32 79.5522 121.036 79.5181C122.737 79.4841 123.96 78.2094 123.925 76.508C123.89 74.8066 122.63 73.5981 120.914 73.6169C119.213 73.6509 117.99 74.9103 118.025 76.627Z" fill="url(#paint17_linear_75_908)"/>
<path d="M6.17804 106.271C6.17378 104.555 4.92958 103.331 3.19809 103.334C1.48193 103.338 0.259181 104.582 0.263444 106.298C0.267707 108.015 1.52727 109.254 3.22807 109.235C4.94423 109.232 6.18227 107.973 6.17804 106.271Z" fill="url(#paint18_linear_75_908)"/>
<path d="M3.34717 73.8923C1.61545 73.8038 0.285214 74.956 0.197425 76.627C0.109788 78.3593 1.27764 79.6906 2.94806 79.7792C4.66446 79.8678 6.00998 78.7001 6.09777 77.0291C6.20076 75.3121 5.01755 73.9656 3.34717 73.8923Z" fill="url(#paint19_linear_75_908)"/>
<path d="M0.132086 47.3243C0.121026 49.0412 1.35002 50.311 3.03557 50.3229C4.75177 50.3348 6.02053 49.106 6.03163 47.4045C6.04269 45.6877 4.82906 44.4332 3.11286 44.4213C1.39666 44.4094 0.158507 45.6228 0.132086 47.3243Z" fill="url(#paint20_linear_75_908)"/>
<path d="M20.9393 120.923C20.9044 119.221 19.6449 118.013 17.9288 118.032C16.228 118.051 15.0053 119.31 15.0402 121.042C15.0751 122.743 16.3346 123.967 18.0507 123.933C19.7362 123.914 20.9589 122.639 20.9393 120.923Z" fill="url(#paint21_linear_75_908)"/>
<path d="M14.959 91.4772C14.9479 93.194 16.1616 94.4485 17.8625 94.4758C19.5787 94.4877 20.8475 93.2742 20.8586 91.5727C20.8696 89.8559 19.656 88.6014 17.9398 88.5741C16.2389 88.5622 14.9854 89.7756 14.959 91.4772Z" fill="url(#paint22_linear_75_908)"/>
<path d="M14.8934 62.0498C14.8823 63.7666 16.1114 65.0211 17.8276 65.0177C19.5439 65.0296 20.7974 63.7855 20.8085 62.084C20.8195 60.3672 19.5752 59.128 17.8743 59.1161C16.1427 59.1196 14.9045 60.333 14.8934 62.0498Z" fill="url(#paint23_linear_75_908)"/>
<path d="M14.8279 32.6227C14.8322 34.3394 16.0764 35.5632 17.7925 35.5598C19.5087 35.5564 20.7467 34.297 20.7272 32.5956C20.7229 30.8789 19.4787 29.6551 17.7472 29.6586C16.0464 29.6773 14.8236 30.906 14.8279 32.6227Z" fill="url(#paint24_linear_75_908)"/>
<path d="M35.7006 135.71C35.7116 133.993 34.4826 132.754 32.7663 132.742C31.05 132.73 29.7965 133.959 29.7854 135.66C29.7744 137.377 31.0187 138.631 32.7197 138.643C34.4206 138.64 35.6894 137.396 35.7006 135.71Z" fill="url(#paint25_linear_75_908)"/>
<path d="M35.6351 106.252C35.6462 104.535 34.4172 103.296 32.7009 103.284C30.9846 103.272 29.7311 104.501 29.72 106.202C29.709 107.919 30.9533 109.173 32.6543 109.185C34.3552 109.182 35.624 107.938 35.6351 106.252Z" fill="url(#paint26_linear_75_908)"/>
<path d="M29.6543 76.654C29.6126 78.3707 30.811 79.6712 32.4967 79.7291C34.2129 79.7717 35.5124 78.5736 35.5695 76.8874C35.6265 75.1706 34.4128 73.8702 32.7272 73.8276C30.9802 73.7697 29.7113 74.9525 29.6543 76.654Z" fill="url(#paint27_linear_75_908)"/>
<path d="M29.5891 47.3051C29.5934 49.0219 30.8376 50.261 32.5384 50.2576C34.2546 50.2541 35.4927 49.0101 35.5038 47.3087C35.4995 45.592 34.2706 44.3528 32.5544 44.3563C30.8229 44.3597 29.5848 45.5884 29.5891 47.3051Z" fill="url(#paint28_linear_75_908)"/>
<path d="M29.5232 17.8314C29.5122 19.5482 30.7565 20.8026 32.4573 20.8146C34.1735 20.8265 35.4269 19.5824 35.438 17.8809C35.4491 16.1641 34.2048 14.925 32.504 14.913C30.7724 14.9011 29.5343 16.1146 29.5232 17.8314Z" fill="url(#paint29_linear_75_908)"/>
<path d="M50.4618 150.389C50.4728 148.672 49.2286 147.433 47.5277 147.421C45.8115 147.409 44.5581 148.638 44.5623 150.34C44.5512 152.056 45.7955 153.311 47.4964 153.323C49.1819 153.335 50.4507 152.091 50.4618 150.389Z" fill="url(#paint30_linear_75_908)"/>
<path d="M50.3964 121.024C50.4534 119.307 49.2397 118.007 47.5541 117.964C45.8225 117.922 44.5383 119.105 44.4812 120.791C44.4395 122.507 45.6379 123.808 47.3236 123.866C49.0399 123.924 50.3393 122.71 50.3964 121.024Z" fill="url(#paint31_linear_75_908)"/>
<path d="M44.4158 91.4264C44.4047 93.1432 45.6337 94.413 47.3346 94.425C49.0508 94.4369 50.3195 93.208 50.3306 91.5065C50.3417 89.7897 49.1127 88.5352 47.4119 88.5233C45.6803 88.4961 44.4268 89.7095 44.4158 91.4264Z" fill="url(#paint32_linear_75_908)"/>
<defs>
<linearGradient id="paint0_linear_75_908" x1="46.9032" y1="64.9532" x2="46.9071" y2="59.0514" gradientUnits="userSpaceOnUse">
<stop stop-color="#7AC8FF"/>
<stop offset="0.500395" stop-color="#547BED"/>
<stop offset="1" stop-color="#FF719D"/>
</linearGradient>
<linearGradient id="paint1_linear_75_908" x1="46.8442" y1="35.5132" x2="46.8481" y2="29.6099" gradientUnits="userSpaceOnUse">
<stop stop-color="#7AC8FF"/>
<stop offset="0.500395" stop-color="#547BED"/>
<stop offset="1" stop-color="#FF719D"/>
</linearGradient>
<linearGradient id="paint2_linear_75_908" x1="46.7786" y1="6.05521" x2="46.7826" y2="0.153391" gradientUnits="userSpaceOnUse">
<stop stop-color="#7AC8FF"/>
<stop offset="0.500395" stop-color="#547BED"/>
<stop offset="1" stop-color="#FF719D"/>
</linearGradient>
<linearGradient id="paint3_linear_75_908" x1="61.8109" y1="138.564" x2="61.8148" y2="132.662" gradientUnits="userSpaceOnUse">
<stop stop-color="#7AC8FF"/>
<stop offset="0.500395" stop-color="#547BED"/>
<stop offset="1" stop-color="#FF719D"/>
</linearGradient>
<linearGradient id="paint4_linear_75_908" x1="61.7364" y1="109.106" x2="61.7403" y2="103.203" gradientUnits="userSpaceOnUse">
<stop stop-color="#7AC8FF"/>
<stop offset="0.500395" stop-color="#547BED"/>
<stop offset="1" stop-color="#FF719D"/>
</linearGradient>
<linearGradient id="paint5_linear_75_908" x1="61.6707" y1="79.6656" x2="61.6747" y2="73.7637" gradientUnits="userSpaceOnUse">
<stop stop-color="#7AC8FF"/>
<stop offset="0.500395" stop-color="#547BED"/>
<stop offset="1" stop-color="#FF719D"/>
</linearGradient>
<linearGradient id="paint6_linear_75_908" x1="61.6051" y1="50.2076" x2="61.609" y2="44.3028" gradientUnits="userSpaceOnUse">
<stop stop-color="#7AC8FF"/>
<stop offset="0.500395" stop-color="#547BED"/>
<stop offset="1" stop-color="#FF719D"/>
</linearGradient>
<linearGradient id="paint7_linear_75_908" x1="61.533" y1="20.7349" x2="61.537" y2="14.8331" gradientUnits="userSpaceOnUse">
<stop stop-color="#7AC8FF"/>
<stop offset="0.500395" stop-color="#547BED"/>
<stop offset="1" stop-color="#FF719D"/>
</linearGradient>
<linearGradient id="paint8_linear_75_908" x1="76.4975" y1="123.815" x2="76.5015" y2="117.914" gradientUnits="userSpaceOnUse">
<stop stop-color="#7AC8FF"/>
<stop offset="0.500395" stop-color="#547BED"/>
<stop offset="1" stop-color="#FF719D"/>
</linearGradient>
<linearGradient id="paint9_linear_75_908" x1="76.4392" y1="94.3482" x2="76.4431" y2="88.4366" gradientUnits="userSpaceOnUse">
<stop stop-color="#7AC8FF"/>
<stop offset="0.500395" stop-color="#547BED"/>
<stop offset="1" stop-color="#FF719D"/>
</linearGradient>
<linearGradient id="paint10_linear_75_908" x1="76.3666" y1="64.8872" x2="76.3705" y2="58.9835" gradientUnits="userSpaceOnUse">
<stop stop-color="#7AC8FF"/>
<stop offset="0.500395" stop-color="#547BED"/>
<stop offset="1" stop-color="#FF719D"/>
</linearGradient>
<linearGradient id="paint11_linear_75_908" x1="76.3011" y1="35.4327" x2="76.305" y2="29.5303" gradientUnits="userSpaceOnUse">
<stop stop-color="#7AC8FF"/>
<stop offset="0.500395" stop-color="#547BED"/>
<stop offset="1" stop-color="#FF719D"/>
</linearGradient>
<linearGradient id="paint12_linear_75_908" x1="91.2022" y1="109.04" x2="91.2062" y2="103.138" gradientUnits="userSpaceOnUse">
<stop stop-color="#7AC8FF"/>
<stop offset="0.500395" stop-color="#547BED"/>
<stop offset="1" stop-color="#FF719D"/>
</linearGradient>
<linearGradient id="paint13_linear_75_908" x1="91.1278" y1="79.6001" x2="91.1317" y2="73.6974" gradientUnits="userSpaceOnUse">
<stop stop-color="#7AC8FF"/>
<stop offset="0.500395" stop-color="#547BED"/>
<stop offset="1" stop-color="#FF719D"/>
</linearGradient>
<linearGradient id="paint14_linear_75_908" x1="91.0557" y1="50.127" x2="91.0597" y2="44.2256" gradientUnits="userSpaceOnUse">
<stop stop-color="#7AC8FF"/>
<stop offset="0.500395" stop-color="#547BED"/>
<stop offset="1" stop-color="#FF719D"/>
</linearGradient>
<linearGradient id="paint15_linear_75_908" x1="105.898" y1="94.2798" x2="105.902" y2="88.3747" gradientUnits="userSpaceOnUse">
<stop stop-color="#7AC8FF"/>
<stop offset="0.500395" stop-color="#547BED"/>
<stop offset="1" stop-color="#FF719D"/>
</linearGradient>
<linearGradient id="paint16_linear_75_908" x1="105.823" y1="64.837" x2="105.827" y2="58.9337" gradientUnits="userSpaceOnUse">
<stop stop-color="#7AC8FF"/>
<stop offset="0.500395" stop-color="#547BED"/>
<stop offset="1" stop-color="#FF719D"/>
</linearGradient>
<linearGradient id="paint17_linear_75_908" x1="120.578" y1="79.5196" x2="120.582" y2="73.6173" gradientUnits="userSpaceOnUse">
<stop stop-color="#7AC8FF"/>
<stop offset="0.500395" stop-color="#547BED"/>
<stop offset="1" stop-color="#FF719D"/>
</linearGradient>
<linearGradient id="paint18_linear_75_908" x1="2.82296" y1="109.236" x2="2.82689" y2="103.335" gradientUnits="userSpaceOnUse">
<stop stop-color="#7AC8FF"/>
<stop offset="0.500395" stop-color="#547BED"/>
<stop offset="1" stop-color="#FF719D"/>
</linearGradient>
<linearGradient id="paint19_linear_75_908" x1="2.7509" y1="79.7847" x2="2.75483" y2="73.8883" gradientUnits="userSpaceOnUse">
<stop stop-color="#7AC8FF"/>
<stop offset="0.500395" stop-color="#547BED"/>
<stop offset="1" stop-color="#FF719D"/>
</linearGradient>
<linearGradient id="paint20_linear_75_908" x1="2.68512" y1="50.3238" x2="2.6891" y2="44.4219" gradientUnits="userSpaceOnUse">
<stop stop-color="#7AC8FF"/>
<stop offset="0.500395" stop-color="#547BED"/>
<stop offset="1" stop-color="#FF719D"/>
</linearGradient>
<linearGradient id="paint21_linear_75_908" x1="17.5928" y1="123.934" x2="17.5967" y2="118.032" gradientUnits="userSpaceOnUse">
<stop stop-color="#7AC8FF"/>
<stop offset="0.500395" stop-color="#547BED"/>
<stop offset="1" stop-color="#FF719D"/>
</linearGradient>
<linearGradient id="paint22_linear_75_908" x1="17.512" y1="94.4766" x2="17.516" y2="88.5748" gradientUnits="userSpaceOnUse">
<stop stop-color="#7AC8FF"/>
<stop offset="0.500395" stop-color="#547BED"/>
<stop offset="1" stop-color="#FF719D"/>
</linearGradient>
<linearGradient id="paint23_linear_75_908" x1="17.4531" y1="65.0186" x2="17.457" y2="59.1169" gradientUnits="userSpaceOnUse">
<stop stop-color="#7AC8FF"/>
<stop offset="0.500395" stop-color="#547BED"/>
<stop offset="1" stop-color="#FF719D"/>
</linearGradient>
<linearGradient id="paint24_linear_75_908" x1="17.3809" y1="35.5606" x2="17.3848" y2="29.6592" gradientUnits="userSpaceOnUse">
<stop stop-color="#7AC8FF"/>
<stop offset="0.500395" stop-color="#547BED"/>
<stop offset="1" stop-color="#FF719D"/>
</linearGradient>
<linearGradient id="paint25_linear_75_908" x1="32.3452" y1="138.644" x2="32.3491" y2="132.742" gradientUnits="userSpaceOnUse">
<stop stop-color="#7AC8FF"/>
<stop offset="0.500395" stop-color="#547BED"/>
<stop offset="1" stop-color="#FF719D"/>
</linearGradient>
<linearGradient id="paint26_linear_75_908" x1="32.2798" y1="109.186" x2="32.2837" y2="103.284" gradientUnits="userSpaceOnUse">
<stop stop-color="#7AC8FF"/>
<stop offset="0.500395" stop-color="#547BED"/>
<stop offset="1" stop-color="#FF719D"/>
</linearGradient>
<linearGradient id="paint27_linear_75_908" x1="32.2144" y1="79.731" x2="32.2183" y2="73.8262" gradientUnits="userSpaceOnUse">
<stop stop-color="#7AC8FF"/>
<stop offset="0.500395" stop-color="#547BED"/>
<stop offset="1" stop-color="#FF719D"/>
</linearGradient>
<linearGradient id="paint28_linear_75_908" x1="32.1486" y1="50.2583" x2="32.1526" y2="44.357" gradientUnits="userSpaceOnUse">
<stop stop-color="#7AC8FF"/>
<stop offset="0.500395" stop-color="#547BED"/>
<stop offset="1" stop-color="#FF719D"/>
</linearGradient>
<linearGradient id="paint29_linear_75_908" x1="32.0828" y1="20.8155" x2="32.0868" y2="14.9136" gradientUnits="userSpaceOnUse">
<stop stop-color="#7AC8FF"/>
<stop offset="0.500395" stop-color="#547BED"/>
<stop offset="1" stop-color="#FF719D"/>
</linearGradient>
<linearGradient id="paint30_linear_75_908" x1="47.1153" y1="153.324" x2="47.1193" y2="147.422" gradientUnits="userSpaceOnUse">
<stop stop-color="#7AC8FF"/>
<stop offset="0.500395" stop-color="#547BED"/>
<stop offset="1" stop-color="#FF719D"/>
</linearGradient>
<linearGradient id="paint31_linear_75_908" x1="47.0413" y1="123.869" x2="47.0452" y2="117.964" gradientUnits="userSpaceOnUse">
<stop stop-color="#7AC8FF"/>
<stop offset="0.500395" stop-color="#547BED"/>
<stop offset="1" stop-color="#FF719D"/>
</linearGradient>
<linearGradient id="paint32_linear_75_908" x1="46.9754" y1="94.4258" x2="46.9794" y2="88.5235" gradientUnits="userSpaceOnUse">
<stop stop-color="#7AC8FF"/>
<stop offset="0.500395" stop-color="#547BED"/>
<stop offset="1" stop-color="#FF719D"/>
</linearGradient>
</defs>
</svg>
